<svg id="Grupo_3" data-name="Grupo 3" xmlns="http://www.w3.org/2000/svg" width="28.826" height="135.678" viewBox="0 0 28.826 135.678">
  <path id="Trazado_25" data-name="Trazado 25" d="M84.879,239.928l-5.864-5.864-8.55,8.55-8.55-8.55-5.863,5.864,8.55,8.55-8.55,8.55,5.863,5.863,8.55-8.55,8.55,8.55,5.864-5.863-8.55-8.55Z" transform="translate(-56.053 -234.064)" fill="#fefefe"/>
  <path id="Trazado_26" data-name="Trazado 26" d="M84.879,294.379l-5.864-5.864-8.55,8.55-8.55-8.55-5.863,5.864,8.55,8.55-8.55,8.55,5.863,5.863,8.55-8.55,8.55,8.55,5.864-5.863-8.55-8.55Z" transform="translate(-56.053 -235.089)" fill="#fefefe"/>
  <path id="Trazado_27" data-name="Trazado 27" d="M84.879,348.829l-5.864-5.864-8.55,8.55-8.55-8.55-5.863,5.864,8.55,8.55-8.55,8.55,5.863,5.863,8.55-8.55,8.55,8.55,5.864-5.863-8.55-8.55Z" transform="translate(-56.053 -236.113)" fill="#fefefe"/>
</svg>
