<svg xmlns="http://www.w3.org/2000/svg" width="505" height="376.343" viewBox="0 0 505 376.343">
  <g id="Grupo_907163" data-name="Grupo 907163" transform="translate(-163 -392.137)">
    <path id="Trazado_630835" data-name="Trazado 630835" d="M0,0H505V376.343H0Z" transform="translate(163 392.137)" fill="#b3b9b8"/>
    <g id="Grupo_907102" data-name="Grupo 907102" transform="translate(-17 -54.188)">
      <g id="_2" data-name="2" transform="translate(-39.153 414.689)">
        <g id="Grupo_906723" data-name="Grupo 906723" transform="translate(272.374 102.14)">
          <path id="Trazado_630433" data-name="Trazado 630433" d="M655.3,291.018c19.723-45.046-31.75-63.593-58.207-42.876s-39.927,22.233-34.636,1.01c12.9-51.717-1.443-106.112-71.677-136.936S362.5,127.536,351.681,166.569s-15.513,50.022-23.45,43.959c-29.853-22.805-68.907-24.632-51.59,50.022S334.359,380.3,334.359,380.3s286.781-1.286,296.884-3.307,23.09-8.084,37.041-43.455S635.572,336.064,655.3,291.018Z" transform="translate(-272.374 -102.14)" fill="#e8e8e8"/>
          <ellipse id="Elipse_6584" data-name="Elipse 6584" cx="180.597" cy="12.455" rx="180.597" ry="12.455" transform="translate(18.475 265.706)" fill="#e9f5fb"/>
        </g>
        <g id="Grupo_906724" data-name="Grupo 906724" transform="translate(287.421 105.789)">
          <path id="Trazado_630434" data-name="Trazado 630434" d="M380.377,422.253a9.285,9.285,0,0,1,2.541.36,9.924,9.924,0,0,1-.1-1.373,10.019,10.019,0,0,1,16.693-7.486,14.658,14.658,0,0,1,28.009,7.361,10.424,10.424,0,1,1,4.738,19.707H379.462v-.046a9.284,9.284,0,0,1,.915-18.523Z" transform="translate(-371.092 -362.457)" fill="#e9f5fb"/>
          <path id="Trazado_630435" data-name="Trazado 630435" d="M877.341,138.747a6.792,6.792,0,0,0-1.862.264,7.259,7.259,0,0,0,.077-1.006,7.344,7.344,0,0,0-12.235-5.487,10.744,10.744,0,0,0-20.529,5.4,7.64,7.64,0,1,0-3.473,14.444h38.693v-.034a6.8,6.8,0,0,0-.671-13.577Z" transform="translate(-761.472 -126.078)" fill="#e9f5fb"/>
          <path id="Trazado_630436" data-name="Trazado 630436" d="M2185.613,229.043a6.805,6.805,0,0,0-1.863.264,7.238,7.238,0,0,0,.077-1.006,7.344,7.344,0,0,0-12.235-5.486,10.743,10.743,0,0,0-20.529,5.4,7.64,7.64,0,1,0-3.473,14.444h38.693v-.034a6.8,6.8,0,0,0-.671-13.576Z" transform="translate(-1870.331 -202.611)" fill="#e9f5fb"/>
          <path id="Trazado_630437" data-name="Trazado 630437" d="M2304.175,552.383a9.774,9.774,0,0,1,2.678.38,10.444,10.444,0,0,1-.11-1.447,10.561,10.561,0,0,1,17.6-7.89,15.45,15.45,0,0,1,29.523,7.759,10.987,10.987,0,1,1,4.994,20.772h-55.646v-.049a9.786,9.786,0,0,1,.964-19.525Z" transform="translate(-2001.23 -471.961)" fill="#e9f5fb"/>
        </g>
        <g id="Grupo_906730" data-name="Grupo 906730" transform="translate(321.35 107.839)">
          <g id="Grupo_906725" data-name="Grupo 906725" transform="translate(189.78 107.208)">
            <path id="Trazado_630438" data-name="Trazado 630438" d="M1600.18,869.988l9.527-3.757-.039-3.89-13.655,6.081.035,3.3,13.781,5.817-.042-3.862Z" transform="translate(-1596.013 -859.376)" fill="#e9f5fb"/>
            <path id="Trazado_630439" data-name="Trazado 630439" d="M1695.153,863.66l2.825-.03,4.79-20.746-2.877.033Z" transform="translate(-1680.042 -842.884)" fill="#e9f5fb"/>
            <path id="Trazado_630440" data-name="Trazado 630440" d="M1767.434,867.579l-13.793-5.792.04,3.836,9.621,3.626-9.542,3.866.041,3.864,13.667-6.124Z" transform="translate(-1729.615 -858.906)" fill="#e9f5fb"/>
          </g>
          <g id="Grupo_906726" data-name="Grupo 906726" transform="translate(136.525 69.719)">
            <path id="Trazado_630441" data-name="Trazado 630441" d="M1275.872,612.932l-2.741-1.313c0-.237-.007-.474-.021-.7s-.035-.465-.064-.7l2.563-1.634a.259.259,0,0,0,.113-.279l-.034-.143v0a14.8,14.8,0,0,0-.793-2.38l-.058-.135a.27.27,0,0,0-.258-.157l-3.031.233a11.856,11.856,0,0,0-.777-1.174l1.4-2.693a.26.26,0,0,0-.042-.3l-.1-.107a14.98,14.98,0,0,0-1.882-1.667l-.118-.088a.26.26,0,0,0-.3-.006l-2.5,1.715a11.979,11.979,0,0,0-1.259-.63l-.133-3.036a.259.259,0,0,0-.186-.237l-.142-.042a14.7,14.7,0,0,0-2.462-.5l-.146-.017a.26.26,0,0,0-.264.146l-1.313,2.741a11.661,11.661,0,0,0-1.4.085l-1.633-2.563a.258.258,0,0,0-.28-.113l-.143.034a14.755,14.755,0,0,0-2.385.795l-.135.058a.26.26,0,0,0-.156.258l.233,3.03a11.982,11.982,0,0,0-1.174.777l-2.693-1.4a.259.259,0,0,0-.3.042l-.107.1a14.936,14.936,0,0,0-1.667,1.881l-.088.118a.26.26,0,0,0-.006.3l1.716,2.5a11.853,11.853,0,0,0-.63,1.259l-3.039.134a.271.271,0,0,0-.234.185l-.042.142a14.768,14.768,0,0,0-.5,2.463l-.017.146a.26.26,0,0,0,.146.264l2.741,1.313c0,.234.007.471.021.7s.036.468.064.7l-2.563,1.634a.26.26,0,0,0-.113.279l.034.143a14.733,14.733,0,0,0,.794,2.385l.059.135a.252.252,0,0,0,.258.156l3.03-.233a11.864,11.864,0,0,0,.777,1.173l-1.4,2.693a.259.259,0,0,0,.042.3l.1.108a14.956,14.956,0,0,0,1.882,1.667l.118.088a.26.26,0,0,0,.3.006l2.5-1.715a11.755,11.755,0,0,0,1.259.63l.134,3.036a.259.259,0,0,0,.186.237l.141.042a14.678,14.678,0,0,0,2.464.5l.147.016a.261.261,0,0,0,.263-.146l1.313-2.741a11.637,11.637,0,0,0,1.4-.085l1.633,2.563a.259.259,0,0,0,.233.12.243.243,0,0,0,.046-.007l.144-.034a14.7,14.7,0,0,0,2.383-.794l.136-.059a.259.259,0,0,0,.157-.258l-.234-3.03a11.757,11.757,0,0,0,1.174-.777l2.693,1.4a.261.261,0,0,0,.3-.042l.107-.1a14.981,14.981,0,0,0,1.668-1.882l.088-.119a.259.259,0,0,0,.006-.3l-1.716-2.505a11.712,11.712,0,0,0,.63-1.258l3.038-.133a.258.258,0,0,0,.236-.187l.041-.14a14.72,14.72,0,0,0,.5-2.463l.017-.146A.26.26,0,0,0,1275.872,612.932Zm-1.177,2.289-2.986.131a.28.28,0,0,0-.225.162l-.051.126a10.927,10.927,0,0,1-.829,1.657l-.07.113a.261.261,0,0,0,.007.283l1.685,2.461a14.055,14.055,0,0,1-1.123,1.268l-2.646-1.377a.261.261,0,0,0-.281.027l-.1.082a10.88,10.88,0,0,1-1.547,1.024l-.117.064a.26.26,0,0,0-.134.248l.229,2.976a13.811,13.811,0,0,1-1.606.535l-1.605-2.518a.267.267,0,0,0-.256-.118l-.131.019a10.907,10.907,0,0,1-1.851.112l-.133,0a.25.25,0,0,0-.242.148l-1.29,2.693a13.74,13.74,0,0,1-1.659-.338l-.13-2.982a.26.26,0,0,0-.163-.23l-.124-.049a10.846,10.846,0,0,1-1.658-.83l-.114-.07a.259.259,0,0,0-.282.007l-2.461,1.685a14.075,14.075,0,0,1-1.268-1.124l1.376-2.646a.259.259,0,0,0-.027-.282l-.082-.1a10.9,10.9,0,0,1-1.024-1.547l-.064-.117a.262.262,0,0,0-.241-.135h-.006l-2.976.229a13.844,13.844,0,0,1-.535-1.606l2.518-1.6a.26.26,0,0,0,.117-.256l-.019-.132c-.045-.314-.077-.624-.1-.923s-.023-.611-.016-.928l0-.133a.259.259,0,0,0-.147-.24l-2.693-1.29a13.843,13.843,0,0,1,.338-1.659l2.98-.13a.25.25,0,0,0,.231-.163l.049-.124a10.914,10.914,0,0,1,.83-1.658l.07-.114a.26.26,0,0,0-.007-.282l-1.685-2.461a13.94,13.94,0,0,1,1.124-1.268l2.646,1.376a.259.259,0,0,0,.281-.027l.1-.083a10.929,10.929,0,0,1,1.547-1.024l.117-.064a.259.259,0,0,0,.134-.248l-.23-2.976a13.8,13.8,0,0,1,1.606-.535l1.6,2.518a.26.26,0,0,0,.256.118l.132-.019a10.989,10.989,0,0,1,1.852-.112l.133,0a.259.259,0,0,0,.239-.147l1.291-2.693a13.752,13.752,0,0,1,1.658.338l.131,2.982a.259.259,0,0,0,.163.229l.124.05a10.869,10.869,0,0,1,1.658.829l.113.07a.261.261,0,0,0,.283-.007l2.461-1.685a13.973,13.973,0,0,1,1.268,1.124l-1.376,2.646a.259.259,0,0,0,.026.281l.083.105a10.83,10.83,0,0,1,1.024,1.547l.065.117a.258.258,0,0,0,.247.133l2.976-.229a13.773,13.773,0,0,1,.535,1.606l-2.518,1.6a.259.259,0,0,0-.117.256l.019.132c.045.311.077.622.1.923s.024.615.016.928l0,.133a.26.26,0,0,0,.147.24l2.693,1.29A13.793,13.793,0,0,1,1274.695,615.221Z" transform="translate(-1246.63 -596.933)" fill="#e9f5fb"/>
            <path id="Trazado_630442" data-name="Trazado 630442" d="M1307.867,652.3a6.257,6.257,0,1,0,6.622,5.868A6.264,6.264,0,0,0,1307.867,652.3Zm.7,11.561a5.325,5.325,0,1,1,4.994-5.637A5.332,5.332,0,0,1,1308.565,663.861Z" transform="translate(-1293.549 -643.851)" fill="#e9f5fb"/>
          </g>
          <g id="Grupo_906727" data-name="Grupo 906727" transform="translate(178.315 185.808)">
            <path id="Trazado_630443" data-name="Trazado 630443" d="M1569.587,1452.4l-.01-.038a.558.558,0,0,1,.044-.4l.013-.024a.564.564,0,0,1,1.032.137s.106.4.279,1.106a.573.573,0,0,1-.037.368.6.6,0,0,1-.376.312.564.564,0,0,1-.682-.414C1569.71,1452.877,1569.615,1452.513,1569.587,1452.4Z" transform="translate(-1562.125 -1437.466)" fill="#e9f5fb"/>
            <path id="Trazado_630444" data-name="Trazado 630444" d="M1590.507,1591.431a.564.564,0,0,1-.527-.6c.042-.679.061-1.412.057-2.179a.559.559,0,0,1,.063-.261.566.566,0,0,1,.5-.306.563.563,0,0,1,.566.561c0,.788-.015,1.545-.058,2.253v0a.6.6,0,0,1-.051.2A.556.556,0,0,1,1590.507,1591.431Z" transform="translate(-1579.434 -1553.101)" fill="#e9f5fb"/>
            <path id="Trazado_630445" data-name="Trazado 630445" d="M1660.215,1643.541a.56.56,0,0,1,.006-.433c.005-.012.011-.024.017-.036a.557.557,0,0,1,.292-.263.564.564,0,0,1,.731.315,17.289,17.289,0,0,1,.705,2.176h0a.561.561,0,0,1-.036.373.54.54,0,0,1-.375.311.565.565,0,0,1-.684-.41A16.1,16.1,0,0,0,1660.215,1643.541Z" transform="translate(-1638.93 -1599.447)" fill="#e9f5fb"/>
            <path id="Trazado_630446" data-name="Trazado 630446" d="M1667.348,1673.627a16.432,16.432,0,0,0-.1-2.139.563.563,0,0,1,1.12-.125,17.639,17.639,0,0,1,.107,2.283.558.558,0,0,1-.052.227.563.563,0,0,1-1.075-.246Z" transform="translate(-1644.923 -1623.259)" fill="#e9f5fb"/>
            <path id="Trazado_630447" data-name="Trazado 630447" d="M1604.308,1584.014l-.012.022a.564.564,0,0,1-.765.225c-.194-.106-.388-.2-.581-.293a9.706,9.706,0,0,0-1.349-.508.562.562,0,0,1-.381-.7.584.584,0,0,1,.041-.1.562.562,0,0,1,.657-.28,10.807,10.807,0,0,1,1.506.568c.215.1.431.209.646.325h0a.554.554,0,0,1,.253.7Z" transform="translate(-1588.942 -1548.242)" fill="#e9f5fb"/>
            <path id="Trazado_630448" data-name="Trazado 630448" d="M1646.709,1618.815q-.187-.284-.378-.553a.563.563,0,1,1,.919-.652c.134.189.268.384.4.584.291.439.564.89.813,1.341h0a.564.564,0,0,1-.986.545C1647.239,1619.649,1646.98,1619.224,1646.709,1618.815Z" transform="translate(-1627.109 -1577.922)" fill="#e9f5fb"/>
            <path id="Trazado_630449" data-name="Trazado 630449" d="M1574.694,1473.656a.564.564,0,0,1,1.1-.245c.147.652.3,1.384.468,2.177a.562.562,0,0,1-.04.351.554.554,0,0,1-.4.316.563.563,0,0,1-.424-.081.557.557,0,0,1-.242-.357C1575,1475.029,1574.839,1474.3,1574.694,1473.656Z" transform="translate(-1566.468 -1455.53)" fill="#e9f5fb"/>
            <path id="Trazado_630450" data-name="Trazado 630450" d="M1628.753,1598.681a.56.56,0,0,1-.391-.184,14.2,14.2,0,0,0-1.542-1.466.564.564,0,1,1,.711-.875,15.413,15.413,0,0,1,1.665,1.583h0a.561.561,0,0,1,.094.615.553.553,0,0,1-.132.18A.562.562,0,0,1,1628.753,1598.681Z" transform="translate(-1610.482 -1559.832)" fill="#e9f5fb"/>
            <path id="Trazado_630451" data-name="Trazado 630451" d="M1524.28,1627.814a2.823,2.823,0,0,0,.566,1.729h0a.56.56,0,0,1,.06.574.553.553,0,0,1-.173.215.564.564,0,0,1-.789-.113,3.922,3.922,0,0,1-.791-2.4.562.562,0,0,1,.562-.565.563.563,0,0,1,.565.563Z" transform="translate(-1522.794 -1586.294)" fill="#e9f5fb"/>
            <path id="Trazado_630452" data-name="Trazado 630452" d="M1548.815,1585.215a.565.565,0,0,1-.307.734,9.87,9.87,0,0,0-1.837,1,.564.564,0,0,1-.641-.927,11.118,11.118,0,0,1,2.049-1.117.568.568,0,0,1,.735.306Z" transform="translate(-1541.979 -1550.369)" fill="#e9f5fb"/>
            <path id="Trazado_630453" data-name="Trazado 630453" d="M1580.623,1501.779a.563.563,0,0,1,.82-.207.556.556,0,0,1,.234.36c.133.7.264,1.439.391,2.193a.564.564,0,0,1-.461.649.563.563,0,0,1-.65-.462c-.125-.747-.256-1.474-.388-2.172A.558.558,0,0,1,1580.623,1501.779Z" transform="translate(-1571.451 -1479.688)" fill="#e9f5fb"/>
            <path id="Trazado_630454" data-name="Trazado 630454" d="M1586.8,1532.859v0a.572.572,0,0,1-.048.3.557.557,0,0,1-.445.322.565.565,0,0,1-.625-.492c-.089-.734-.188-1.464-.293-2.182a.558.558,0,0,1,.055-.342.6.6,0,0,1,.048-.078.563.563,0,0,1,1.01.254C1586.614,1531.376,1586.713,1532.115,1586.8,1532.859Z" transform="translate(-1575.541 -1504.007)" fill="#e9f5fb"/>
            <path id="Trazado_630455" data-name="Trazado 630455" d="M1576.069,1559.558c.071.765.125,1.516.163,2.233a.553.553,0,0,1-.051.266.567.567,0,0,1-.583.323l.031.032a.559.559,0,0,1,.144.4.547.547,0,0,1-.051.21.573.573,0,0,1-.541.326,9.117,9.117,0,0,0-2.078.127.564.564,0,0,1-.195-1.11,10.3,10.3,0,0,1,2.332-.142l.042,0a.555.555,0,0,1-.176-.379c-.036-.681-.09-1.418-.16-2.191a.563.563,0,0,1,1.122-.1Z" transform="translate(-1564.571 -1528.486)" fill="#e9f5fb"/>
            <path id="Trazado_630456" data-name="Trazado 630456" d="M1528.875,1601.478a.565.565,0,0,1,.038.8,7.052,7.052,0,0,0-1.161,1.685.554.554,0,0,1-.321.287.563.563,0,0,1-.431-.024.574.574,0,0,1-.262-.752c.029-.061.06-.122.091-.183a8.345,8.345,0,0,1,1.249-1.77.563.563,0,0,1,.8-.039Z" transform="translate(-1525.793 -1564.325)" fill="#e9f5fb"/>
            <path id="Trazado_630457" data-name="Trazado 630457" d="M1586.206,1617.091a.562.562,0,0,1,.468.646,14.02,14.02,0,0,1-.539,2.242l-.023.057a.555.555,0,0,1-.691.3.564.564,0,0,1-.353-.715,12.92,12.92,0,0,0,.495-2.063.564.564,0,0,1,.644-.464Z" transform="translate(-1575.246 -1577.677)" fill="#e9f5fb"/>
            <path id="Trazado_630458" data-name="Trazado 630458" d="M1656.158,1728.753c-.248.692-.537,1.4-.859,2.1h0a.563.563,0,0,1-1.022-.474c.307-.664.583-1.338.826-2.014a.551.551,0,0,1,.023-.051.567.567,0,0,1,.694-.279.561.561,0,0,1,.318.29A.555.555,0,0,1,1656.158,1728.753Z" transform="translate(-1633.887 -1671.686)" fill="#e9f5fb"/>
            <path id="Trazado_630459" data-name="Trazado 630459" d="M1664.007,1702.443a19.934,19.934,0,0,0,.414-2.116.566.566,0,0,1,.636-.478.563.563,0,0,1,.481.636,20.8,20.8,0,0,1-.437,2.23.551.551,0,0,1-.036.1.556.556,0,0,1-.648.309A.565.565,0,0,1,1664.007,1702.443Z" transform="translate(-1642.164 -1647.822)" fill="#e9f5fb"/>
            <path id="Trazado_630460" data-name="Trazado 630460" d="M1642.26,1755.158l-.018.042-.011.02c-.366.651-.762,1.3-1.179,1.925a.563.563,0,0,1-.969-.572c.009-.018.02-.036.031-.053.4-.6.782-1.225,1.134-1.852a.562.562,0,0,1,1.011.489Z" transform="translate(-1621.848 -1694.046)" fill="#e9f5fb"/>
            <path id="Trazado_630461" data-name="Trazado 630461" d="M1539.007,1649.97l.008-.015a.565.565,0,0,1,.743-.25l.057.028a7.361,7.361,0,0,0,1.1.4,6.477,6.477,0,0,0,.8.174.562.562,0,0,1,.473.639.524.524,0,0,1-.045.153.552.552,0,0,1-.6.322,7.7,7.7,0,0,1-.935-.2,8.486,8.486,0,0,1-1.267-.463l-.067-.031a.565.565,0,0,1-.3-.654Z" transform="translate(-1536.186 -1605.279)" fill="#e9f5fb"/>
            <path id="Trazado_630462" data-name="Trazado 630462" d="M1567.447,1646.507a.564.564,0,0,1,.044-1.041,3.257,3.257,0,0,0,1.479-1.134.563.563,0,0,1,.789-.11.568.568,0,0,1,.17.688.452.452,0,0,1-.062.1,4.34,4.34,0,0,1-1.991,1.514A.559.559,0,0,1,1567.447,1646.507Z" transform="translate(-1560.06 -1600.581)" fill="#e9f5fb"/>
            <path id="Trazado_630463" data-name="Trazado 630463" d="M1628.445,1779.539a.451.451,0,0,1-.069.112c-.416.528-.695.838-.749.9a.562.562,0,0,1-.91-.644.6.6,0,0,1,.087-.126c.115-.127.357-.4.688-.825a.563.563,0,0,1,.954.585Z" transform="translate(-1610.516 -1714.692)" fill="#e9f5fb"/>
            <path id="Trazado_630464" data-name="Trazado 630464" d="M1524.533,1358.548l-3.734,17.873,7.133-3.754-.023-.336-.365-2.915,1.262,3.024.379-.05,7.808-.753Zm-2.324,16,2.912-13.94,9.736,10.228-5.419.523-3.795-9.091,1.232,9.824Z" transform="translate(-1520.799 -1358.548)" fill="#e9f5fb"/>
          </g>
          <g id="Grupo_906729" data-name="Grupo 906729" transform="translate(138.476)">
            <path id="Trazado_630465" data-name="Trazado 630465" d="M1297.481,173.462l-4.4,4.823a6.065,6.065,0,0,1,2.067,4.6,7.157,7.157,0,0,1-6.621,6.943,6.336,6.336,0,0,1-6.167-3.239l-6.344,3.413a11.943,11.943,0,0,0,2.72,3.353c5.472,4.693,14,3.833,19.052-1.638,4.906-5.314,4.9-13.248,0-17.98C1297.689,173.645,1297.585,173.554,1297.481,173.462Z" transform="translate(-1273.488 -168.29)" fill="#fecb2f"/>
            <g id="Grupo_906728" data-name="Grupo 906728">
              <path id="Trazado_630466" data-name="Trazado 630466" d="M1278.747,140.53a.207.207,0,0,0-.118-.11l-.129-.048a14.538,14.538,0,0,0-15.06,3.4,14.207,14.207,0,0,0-3.976,7l-.032.139a.207.207,0,0,0,.171.251l7.2,1.105.032,0a.207.207,0,0,0,.2-.162l.027-.121a6.913,6.913,0,0,1,6.413-5.262,6.344,6.344,0,0,1,2.357.344l.12.042a.207.207,0,0,0,.261-.119l2.529-6.306A.2.2,0,0,0,1278.747,140.53Zm-2.992,5.8a7.033,7.033,0,0,0-2.3-.281,7.645,7.645,0,0,0-6.973,5.483l-6.268-.962a13.573,13.573,0,0,1,3.7-6.309,13.9,13.9,0,0,1,14.019-3.367Z" transform="translate(-1259.427 -139.531)" fill="#fecb2f"/>
              <path id="Trazado_630467" data-name="Trazado 630467" d="M1273.448,225.187l-6.942-1.065a12.378,12.378,0,0,0,1.161,8.822l6.344-3.413a6.083,6.083,0,0,1-.725-2.907A6.523,6.523,0,0,1,1273.448,225.187Z" transform="translate(-1265.139 -211.228)" fill="#fecb2f"/>
              <path id="Trazado_630468" data-name="Trazado 630468" d="M1376.819,157.469l-2.43,6.061a6.205,6.205,0,0,1,2.071,1.2l4.4-4.823A12.3,12.3,0,0,0,1376.819,157.469Z" transform="translate(-1356.866 -154.735)" fill="#fecb2f"/>
            </g>
          </g>
          <path id="Trazado_630469" data-name="Trazado 630469" d="M370.991,835.331c-1.1-5.93-6.328-6.512-9.79-6.9-3.592-.4-3.8-.737-3.924-1.457-.076-.414.4-.773.812-1a6.935,6.935,0,0,1,1.985-.673,6.107,6.107,0,0,1,4.38.867,1.485,1.485,0,0,0,2.075-.325l1.971-2.7a1.491,1.491,0,0,0-.325-2.075h0a11.877,11.877,0,0,0-5.95-2.126l-.255-1.378a1.476,1.476,0,0,0-.617-.954,1.459,1.459,0,0,0-1.11-.238l-3.291.608a1.489,1.489,0,0,0-.95.617,1.473,1.473,0,0,0-.24,1.112l.234,1.268c-3.677,1.611-5.564,4.708-4.933,8.125,1,5.66,6.077,6.229,9.438,6.6,3.868.432,4.118.88,4.282,1.771.068.37-.2.737-.791,1.09a6.9,6.9,0,0,1-2.153.756,7.331,7.331,0,0,1-3.723-.279,1.493,1.493,0,0,0-1.943.807l-1.268,3.084a1.479,1.479,0,0,0,.8,1.945,12.855,12.855,0,0,0,4.865.875l.213,1.155a1.491,1.491,0,0,0,1.619,1.209c.037,0,.075-.009.112-.016l3.287-.608a1.377,1.377,0,0,0,.2-.051l.058-.02a1.484,1.484,0,0,0,.933-1.661l-.276-1.491C370,841.542,371.593,838.586,370.991,835.331ZM365.718,845a.191.191,0,0,1-.03.144.179.179,0,0,1-.116.075l-3.29.608a.182.182,0,0,1-.138-.03.189.189,0,0,1-.079-.122l-.376-2.034a.259.259,0,0,0-.267-.212l-.34.015a11.712,11.712,0,0,1-4.879-.764.187.187,0,0,1-.1-.1.18.18,0,0,1,0-.144l1.267-3.082a.2.2,0,0,1,.122-.113.133.133,0,0,1,.037-.01.186.186,0,0,1,.088.015,8.761,8.761,0,0,0,4.458.357,8.45,8.45,0,0,0,2.579-.917c1.383-.822,1.528-1.782,1.406-2.442-.38-2.054-1.942-2.439-5.417-2.827-2.976-.333-7.474-.836-8.3-5.545-.543-2.941,1.228-5.579,4.621-6.887l.3-.116a.259.259,0,0,0,.163-.29l-.39-2.107a.186.186,0,0,1,.03-.138.178.178,0,0,1,.119-.077l3.29-.609a.177.177,0,0,1,.137.029.187.187,0,0,1,.078.12l.4,2.182a.259.259,0,0,0,.244.212l.311.013a10.633,10.633,0,0,1,5.758,1.91.189.189,0,0,1,.042.262l-1.972,2.7a.194.194,0,0,1-.12.071.169.169,0,0,1-.138-.035,7.491,7.491,0,0,0-5.381-1.095c-1.974.366-4.164,1.42-3.84,3.184.333,1.9,1.964,2.171,5.059,2.518s7.736.86,8.656,5.842c.518,2.8-.976,5.327-4,6.755l-.271.129a.259.259,0,0,0-.144.282Z" transform="translate(-350.942 -713.182)" fill="#e9f5fb"/>
        </g>
        <g id="Grupo_906749" data-name="Grupo 906749" transform="translate(445.694 281.007)">
          <path id="Trazado_630490" data-name="Trazado 630490" d="M1436.308,1313.7c-.668-1.279-1.371-1.78-.733-5.122,2.118-11.089-7.945-8.864-8.5-5.951-.136.717.138,1.231.909.643,1.3-.992,5.079-1.178,1.288,4.908-1,1.607-3.879,3.252.225,7.733,3.712,4.053-.272,4.162-.377,5.549C1428.85,1325.017,1439.608,1320.013,1436.308,1313.7Z" transform="translate(-1387.361 -1296.498)" fill="#3080b7"/>
          <path id="Trazado_630491" data-name="Trazado 630491" d="M1334.531,1541.6c-.325,2.33,4.632,59.783,4.632,59.783a2.279,2.279,0,0,0,2.682.078s.927-13.244,2.711-25.74c1.54-10.788,1.311-21.018,2.165-21.691V1542.6C1342.341,1542.886,1335.983,1542.239,1334.531,1541.6Z" transform="translate(-1308.939 -1501.061)" fill="#af2056"/>
          <path id="Trazado_630492" data-name="Trazado 630492" d="M1343.184,1918.929a7.71,7.71,0,0,1-1.924.036,1.959,1.959,0,0,0-.094-.731,12.307,12.307,0,0,0-1.216-.528c.119.621.284,3.839-.342,4.305a4.807,4.807,0,0,1-2.441.586c-1.152,0-1.4.656-1.4.91a.541.541,0,0,0,.594.588c1.4,0,4.623-.015,5.594-.015a1.893,1.893,0,0,0,1.693-.5.966.966,0,0,0,.078-.9A28.393,28.393,0,0,1,1343.184,1918.929Z" transform="translate(-1309.999 -1819.837)" fill="#3080b7"/>
          <g id="Grupo_906745" data-name="Grupo 906745">
            <path id="Trazado_630493" data-name="Trazado 630493" d="M1193.2,1285.668c-.22.026-.309,1-.215,1.2.371.411.6.429.962.835a6.227,6.227,0,0,1-.445-1.563C1193.49,1285.882,1193.542,1285.6,1193.2,1285.668Z" transform="translate(-1188.953 -1284.127)" fill="#fff"/>
            <path id="Trazado_630494" data-name="Trazado 630494" d="M1283.252,1361.71c-2.4-.942-10.668-1.873-14.54-3.076-4.75-1.476-4.083,2.365-2.789,3.276,3.408,2.4,13.9,7.363,15.326,5.725C1281.866,1366.925,1283.687,1361.881,1283.252,1361.71Z" transform="translate(-1250 -1345.697)" fill="#fff"/>
            <path id="Trazado_630495" data-name="Trazado 630495" d="M1314.979,1366.048c-1.693-.665-6.342-1.491-10.138-2.63a30.987,30.987,0,0,0-1.64,4.176c-.156.516-.681,2.063-.792,2.587,4.226,2.063,9.614,2.884,10.566,1.791C1313.594,1371.263,1315.415,1366.219,1314.979,1366.048Z" transform="translate(-1281.727 -1350.036)" fill="#0b507f"/>
            <path id="Trazado_630496" data-name="Trazado 630496" d="M1203.866,1308.445c-2.1-1.837-11.04-7.287-12.92-9.548a9.262,9.262,0,0,1-1.626,1.7c3.167,3.657,12.081,11.874,13.84,11.071a1.879,1.879,0,0,0,1.036-2.809A1.679,1.679,0,0,0,1203.866,1308.445Z" transform="translate(-1185.875 -1295.349)" fill="#fff"/>
            <path id="Trazado_630497" data-name="Trazado 630497" d="M1167.689,1278.7c.007.01.019.019.024.026.925.888,2.136,1.86,2.5,2.172.734-.214,1.625-1.661,1.611-1.689-.491-.394-1.09-1.1-1.51-1.464-.487-.434-1.688-1.283-1.772-1.346-.251-.157-.854-.6-1.064-.7a.562.562,0,0,0-.714.108c-.061.094-.158.361.446.768a12.761,12.761,0,0,1,1.136.842s-.51.088-.359.449c0,0-.456.037-.327.448C1167.66,1278.315,1167.426,1278.455,1167.689,1278.7Z" transform="translate(-1166.719 -1275.621)" fill="#fff"/>
          </g>
          <path id="Trazado_630498" data-name="Trazado 630498" d="M1386.985,1541.6c-1.453.636-11.774,2.566-16.154,2.279a54,54,0,0,0,1.125,9.286c1.45,5.506,3.358,14.651,4.3,19.4,2.412,12.205,6.9,28.357,6.9,28.357a2.611,2.611,0,0,0,2.743-.5s-.109-22.12-1.1-27.25C1383.979,1568.944,1387.162,1542.868,1386.985,1541.6Z" transform="translate(-1339.719 -1501.061)" fill="#ef3c79"/>
          <path id="Trazado_630499" data-name="Trazado 630499" d="M1327.372,1561.592s-1.394,6.691-.724,7.272c1.515,1.315,7.2.1,11.523-.43s12.291.345,12.5-.537c.562-2.384-.5-7.651-.5-7.651Z" transform="translate(-1302.117 -1516.861)" fill="#0b507f"/>
          <path id="Trazado_630500" data-name="Trazado 630500" d="M1381.9,1330.835c-.3.224-3.464,1.978-4.366,1.841.007.249.614,3.013.03,4.434.562,2.223,3.915,1.213,4.927-1.027A14.144,14.144,0,0,1,1381.9,1330.835Z" transform="translate(-1345.405 -1322.419)" fill="#fff"/>
          <path id="Trazado_630501" data-name="Trazado 630501" d="M1376.838,1302.347c-1.369-.947-2.947-1.437-4.064-.278-.4.415-2.785,4.9-.853,6.939.817.864,3.706.306,4.465-.792l1.046-1.513A3.034,3.034,0,0,0,1376.838,1302.347Z" transform="translate(-1340.01 -1297.465)" fill="#fff"/>
          <path id="Trazado_630502" data-name="Trazado 630502" d="M1325.445,1398.83c1.408,2.816,24.813.958,24.378-2.523-1.448-11.6-2.612-23.349-2.925-24.323-1.014-3.157-2.186-4.828-4.995-5.591-.938-.254-3.718-1.12-3.718-1.12s-1.972,1.935-3.274,2.041c-.893.074-1.652-1.014-1.652-1.014a38.483,38.483,0,0,0-3.8,1.487c-2.267,1.49-2.3,4-2.437,6.086-.468,7.336-.874,12.462-1.177,16.072-.081.955-.155,1.807-.221,2.563C1325.238,1396.981,1325.127,1398.2,1325.445,1398.83Z" transform="translate(-1301.094 -1351.607)" fill="#0b5999"/>
          <path id="Trazado_630503" data-name="Trazado 630503" d="M1381.482,1297.646c-.959-3.129-5.379-3.05-5.379-3.05-2.737-.993-4.342,2.922-3.525,4.116,1.041-2.963,3.344-2.751,3.344-2.751,3.36,1.934,2.157,6.595,1.321,7.49C1377.243,1303.452,1382.928,1302.357,1381.482,1297.646Z" transform="translate(-1341.019 -1291.569)" fill="#3080b7"/>
          <path id="Trazado_630504" data-name="Trazado 630504" d="M1327.638,1409.746c.623.019,1.223.032,1.581.022v0c4.688-.451,16.047-2.839,16.985-4.717a2.4,2.4,0,0,0,.758-1.26,38.047,38.047,0,0,0,.388-5.594c.293-.092.576-.19.847-.3.067-4.7-.805-8.824-1.563-10.057-1.95-3.178-6.416-2.639-7.075-.381-.51,1.748.9,7.2,1.482,11.118a8,8,0,0,0,1.012.158c.328,1.464.606,2.833.758,3.929.008.052.015.1.025.148-3.621,1.189-11.32,4.387-13.983,4.641a.029.029,0,0,1-.006-.01c-.13-.017-.264-.03-.4-.039a3.638,3.638,0,0,1-.591-.221C1327.779,1408.138,1327.7,1408.99,1327.638,1409.746Z" transform="translate(-1303.11 -1368.847)" fill="#0b507f"/>
          <path id="Trazado_630505" data-name="Trazado 630505" d="M1407.828,1331.159a1.508,1.508,0,0,0-.768-.159,21.66,21.66,0,0,0-.377,2.148,1.6,1.6,0,0,0,1.423-.612A1.133,1.133,0,0,0,1407.828,1331.159Z" transform="translate(-1370.106 -1322.556)" fill="#fff"/>
          <path id="Trazado_630506" data-name="Trazado 630506" d="M1427.917,1306.361a1.1,1.1,0,0,0-.482-.483,1.421,1.421,0,0,0-.941-.078,5.844,5.844,0,0,1,1.1,2.371A1.228,1.228,0,0,0,1427.917,1306.361Z" transform="translate(-1386.898 -1301.161)" fill="#0b5999"/>
          <g id="Grupo_906747" data-name="Grupo 906747" transform="translate(0.626 19.715)">
            <g id="Grupo_906746" data-name="Grupo 906746" transform="translate(24.854 18.178)">
              <path id="Trazado_630507" data-name="Trazado 630507" d="M1354.888,1524.226v0a.825.825,0,0,1-.822.823h-19.357a.825.825,0,0,1-.823-.823s0,0,0,0Z" transform="translate(-1333.887 -1524.226)" fill="#0b5999"/>
            </g>
            <path id="Trazado_630508" data-name="Trazado 630508" d="M1245.88,1406.1l4.035,16.849c.067.269.008,1.045-1,1.045l-16.4-.207v-18.8l11.876,0A1.5,1.5,0,0,1,1245.88,1406.1Z" transform="translate(-1223.115 -1404.984)" fill="#0b5999"/>
            <path id="Trazado_630509" data-name="Trazado 630509" d="M1171.31,1404.966h20.965a.481.481,0,0,1,.464.354l4.318,18.04a.482.482,0,0,1-.465.612h-19.521a2.381,2.381,0,0,1-2.294-1.745l-3.931-16.649A.482.482,0,0,1,1171.31,1404.966Z" transform="translate(-1170.828 -1404.966)" fill="#3080b7"/>
            <path id="Trazado_630510" data-name="Trazado 630510" d="M1299.644,1495.653h5.339l-1.078-4.89Z" transform="translate(-1280.009 -1477.686)" fill="#0b5999"/>
            <path id="Trazado_630511" data-name="Trazado 630511" d="M1218.738,1414.47l-1.067-4.838h-1.516l-15.034,17.256h6.8Z" transform="translate(-1196.503 -1408.921)" fill="#0b5999"/>
          </g>
          <g id="Grupo_906748" data-name="Grupo 906748" transform="translate(21.483 15.319)">
            <path id="Trazado_630512" data-name="Trazado 630512" d="M1325.069,1511.555c-.2-.154-.385-.379-.554-.078-.125.184.549.887.762.947.554-.011.546-.336,1.066-.27A4.684,4.684,0,0,1,1325.069,1511.555Z" transform="translate(-1321.933 -1490.72)" fill="#fff"/>
            <path id="Trazado_630513" data-name="Trazado 630513" d="M1312.465,1516.571a11.7,11.7,0,0,0-1.633-.075c-.654.008-2.114.188-2.216.2-.295.054-.289.117-.5.225a1.248,1.248,0,0,0-.454.588.374.374,0,0,0,.2.369c-.116.3.676.441.631.507-.182.273-.627.579.513.41.068-.009,2.949.13,3.873.1A11.753,11.753,0,0,0,1312.465,1516.571Z" transform="translate(-1307.659 -1495.097)" fill="#fff"/>
            <path id="Trazado_630514" data-name="Trazado 630514" d="M1411.289,1386.9c.168,2.572,2.413,10.268,2.973,14.285.688,4.927,3.878,2.688,4.152,1.129.72-4.105.469-15.061-.911-16.123C1416.757,1385.613,1411.258,1386.43,1411.289,1386.9Z" transform="translate(-1395.493 -1384.486)" fill="#fff"/>
            <path id="Trazado_630515" data-name="Trazado 630515" d="M1406.007,1378.436c-.51,1.746,1.349,6.374,1.935,10.294a13.485,13.485,0,0,0,7.156-.679c.068-4.7-.805-8.822-1.562-10.057C1411.585,1374.816,1406.665,1376.177,1406.007,1378.436Z" transform="translate(-1390.942 -1376.122)" fill="#0b5999"/>
            <path id="Trazado_630516" data-name="Trazado 630516" d="M1354.505,1484.06a1.705,1.705,0,0,0-.528.029c-2.713.646-12.333,4.78-15.267,5a9.275,9.275,0,0,1,.444,2.31c4.815-.464,16.677-2.972,17.041-4.871A1.88,1.88,0,0,0,1354.505,1484.06Z" transform="translate(-1333.977 -1467.6)" fill="#fff"/>
          </g>
          <path id="Trazado_630517" data-name="Trazado 630517" d="M1429.365,1917.415a7.653,7.653,0,0,1-1.919.15,1.955,1.955,0,0,0-.137-.725,12.361,12.361,0,0,0-1.245-.455c.156.612.51,3.815-.088,4.318a4.805,4.805,0,0,1-2.4.728c-1.15.067-1.36.738-1.345.99a.54.54,0,0,0,.627.552c1.395-.082,4.615-.286,5.584-.343a1.893,1.893,0,0,0,1.661-.6.97.97,0,0,0,.024-.9A28.254,28.254,0,0,1,1429.365,1917.415Z" transform="translate(-1383.282 -1818.717)" fill="#3080b7"/>
        </g>
        <g id="Grupo_906754" data-name="Grupo 906754" transform="translate(349.341 170.711)">
          <g id="Grupo_906751" data-name="Grupo 906751" transform="translate(135.136)">
            <g id="Grupo_906750" data-name="Grupo 906750">
              <path id="Trazado_630518" data-name="Trazado 630518" d="M1479.127,590.831l-50.239,9.375h-7.729l16.993-48.2h7.729Z" transform="translate(-1421.16 -552.01)" fill="#af2056"/>
            </g>
          </g>
          <path id="Trazado_630519" data-name="Trazado 630519" d="M1632.238,554.465h-7.729v.879c-6.442,1.4-13.487,4.5-21.333,9.368L1618.2,588.9c9.137-5.675,13.3-5.962,14.039-5.962,15.06,0,27.312,13.686,27.312,30.508s-12.252,30.509-27.312,30.509v28.474c30.761,0,55.787-26.46,55.787-58.983S1663,554.465,1632.238,554.465Z" transform="translate(-1440.296 -554.091)" fill="#af2056"/>
          <g id="Grupo_906753" data-name="Grupo 906753" transform="translate(135.136)">
            <g id="Grupo_906752" data-name="Grupo 906752">
              <path id="Trazado_630520" data-name="Trazado 630520" d="M1471.4,590.831l-50.239,9.375,16.993-48.2Z" transform="translate(-1421.16 -552.01)" fill="#ef3c79"/>
            </g>
          </g>
          <path id="Trazado_630521" data-name="Trazado 630521" d="M585.29,616.609c0,32.523,25.026,58.983,55.787,58.983,14.231,0,32.207-9.857,54.957-30.134l-17.609-3.306-1.338-17.95h-7.729s-27.287,22.916-28.281,22.916c-15.06,0-27.312-13.686-27.312-30.509,0-13.824,8.277-25.523,19.584-29.257V558.195C606.232,562.186,585.29,586.859,585.29,616.609Z" transform="translate(-577.561 -557.252)" fill="#0b5999"/>
          <path id="Trazado_630522" data-name="Trazado 630522" d="M1005.437,625.137a287.112,287.112,0,0,1-22.45-21.342,311.334,311.334,0,0,0-24.757-23.577c-20.425-17.329-36.755-25.754-49.922-25.754h-7.729v29.726a24.583,24.583,0,0,1,7.729-1.252c.927,0,9.687.528,31.3,18.819a287,287,0,0,1,22.45,21.342,311.233,311.233,0,0,0,24.756,23.577c20.426,17.33,36.756,25.754,49.923,25.754V643.956C1035.806,643.956,1027.047,643.428,1005.437,625.137Z" transform="translate(-844.792 -554.091)" fill="#c29407"/>
          <path id="Trazado_630523" data-name="Trazado 630523" d="M534.584,613.448c0,32.523,25.026,58.983,55.787,58.983,14.231,0,32.207-9.857,54.957-30.134l-17.609-3.306-1.338-17.95c-24.988,22.273-34.956,22.916-36.01,22.916-15.06,0-27.312-13.686-27.312-30.509s12.252-30.508,27.312-30.508l10.794-11.324-10.794-17.15C559.61,554.465,534.584,580.925,534.584,613.448Z" transform="translate(-534.584 -554.091)" fill="#3080b7"/>
          <path id="Trazado_630524" data-name="Trazado 630524" d="M1029,643.956c-.928,0-9.686-.528-31.3-18.819a287.135,287.135,0,0,1-22.45-21.342A311.318,311.318,0,0,0,950.5,580.219c-20.426-17.329-36.755-25.754-49.923-25.754l10.794,17.15-10.794,11.324c.927,0,9.687.528,31.3,18.819a286.99,286.99,0,0,1,22.45,21.342,311.259,311.259,0,0,0,24.756,23.577c20.426,17.33,36.756,25.754,49.922,25.754a53,53,0,0,0,7.729-.569V642.7A24.572,24.572,0,0,1,1029,643.956Z" transform="translate(-844.792 -554.091)" fill="#fecb2f"/>
          <path id="Trazado_630525" data-name="Trazado 630525" d="M1637.32,613.448c0-32.523-25.026-58.983-55.787-58.983-8.452,0-17.958,3.352-29.061,10.247l15.022,24.189c9.137-5.675,13.3-5.962,14.039-5.962,15.06,0,27.312,13.686,27.312,30.508,0,13.824-8.277,25.523-19.583,29.257v29.158C1616.378,667.871,1637.32,643.2,1637.32,613.448Z" transform="translate(-1397.321 -554.091)" fill="#ef3c79"/>
        </g>
        <g id="Grupo_906863" data-name="Grupo 906863" transform="translate(392.93 200.478)">
          <path id="Trazado_630751" data-name="Trazado 630751" d="M871.007,777.687c.036-.23.334-.427.353-.655s-.24-.476-.237-.706.27-.469.256-.7-.305-.436-.335-.665.2-.5.154-.729-.365-.387-.427-.609.126-.526.048-.743-.417-.331-.51-.543.05-.538-.058-.743-.459-.269-.581-.465-.026-.54-.162-.726-.492-.2-.642-.378-.1-.53-.264-.7-.516-.129-.689-.283-.177-.51-.36-.652-.529-.054-.723-.182-.247-.48-.45-.593-.531.022-.74-.077-.314-.439-.531-.523-.522.1-.744.03-.372-.39-.6-.442-.506.171-.732.134-.426-.334-.656-.353-.476.24-.706.237-.469-.27-.7-.257-.437.306-.665.336-.5-.2-.729-.154-.388.365-.609.427-.526-.126-.743-.048-.331.417-.543.51-.539-.05-.743.058-.269.459-.465.582-.539.026-.726.162-.2.492-.378.642-.53.1-.7.264-.129.516-.283.689-.511.176-.652.36-.054.529-.182.722-.48.248-.594.45.023.531-.076.741-.439.313-.524.531.1.521.03.744-.389.372-.442.6.17.506.135.732-.334.427-.354.655.24.476.237.706-.27.469-.256.7.306.436.335.665-.2.5-.153.729.365.388.427.61-.126.526-.048.743.417.332.51.543-.05.538.057.742.459.269.582.465.026.539.162.727.492.2.642.378.1.53.264.7.516.129.689.283.176.51.36.652.528.054.722.182.248.48.45.593.531-.022.741.076.313.439.531.523.522-.1.744-.03.372.39.6.442.506-.17.733-.134.426.334.655.354.476-.24.706-.237.469.27.7.257.437-.306.665-.336.5.2.729.154.388-.365.609-.427.526.126.743.048.332-.416.543-.51.539.05.742-.058.269-.459.465-.581.539-.026.726-.162.2-.493.378-.642.53-.1.7-.264.13-.516.283-.689.51-.177.652-.36.054-.529.182-.722.48-.247.593-.449-.023-.531.077-.741.438-.314.523-.53-.1-.522-.03-.744.389-.372.442-.6S870.971,777.914,871.007,777.687Z" transform="translate(-846.964 -766.368)" fill="#0b5999"/>
          <path id="Trazado_630752" data-name="Trazado 630752" d="M857.329,1075.969c3.163-1.118,22.726-.564,30.893,1.1,3.475.707,3.187,5.076.061,6.278-8.352,3.212-19.027,3.357-26.377,2.729C855.448,1085.523,853.914,1077.176,857.329,1075.969Z" transform="translate(-850.225 -1028.283)" fill="#12263f"/>
          <path id="Trazado_630753" data-name="Trazado 630753" d="M903.519,1257.408l1.273,1.684a7.562,7.562,0,0,0-.856.856c-.495.66.705,3.936-.186,4.284-.42.165-1.126-.8-1.435-1.589-.286-.732-.832-2.105-1-2.556-.214-.575-.764-1.485-.633-1.781.34-.767,1.324-.348,1.868-.562C903.021,1257.56,903.519,1257.408,903.519,1257.408Z" transform="translate(-888.452 -1182.561)" fill="#ef3c79"/>
          <path id="Trazado_630754" data-name="Trazado 630754" d="M915.4,1257.94a3.893,3.893,0,0,0-.959.827s-.126.283-.507.007a9.059,9.059,0,0,1-.879-2.21c.467-.192,1.4-.548,1.4-.548Z" transform="translate(-898.952 -1181.381)" fill="#e9f5fb"/>
          <path id="Trazado_630755" data-name="Trazado 630755" d="M827.676,1057.815c3.328-.433,24.022,4.776,31.662,8.106,3.25,1.417,2.057,5.63-1.252,6.153-8.838,1.4-20.736,1.285-27.793-.863C824.092,1069.323,824.085,1058.282,827.676,1057.815Z" transform="translate(-824.53 -1013.369)" fill="#12263f"/>
          <path id="Trazado_630756" data-name="Trazado 630756" d="M934.7,1118.381c-10.765,9.883-18.779,17.238-18.779,17.238a4.44,4.44,0,0,1-2.233-1.864s6.569-9.258,14.349-19.492C933.169,1107.515,939.093,1114.35,934.7,1118.381Z" transform="translate(-899.493 -1058.821)" fill="#12263f"/>
          <path id="Trazado_630757" data-name="Trazado 630757" d="M1097.128,1275.061l2.089-.305a7.526,7.526,0,0,0,.338,1.163c.339.751,3.788,1.279,3.665,2.227-.059.448-1.244.6-2.084.491-.779-.1-2.246-.285-2.722-.355-.607-.09-1.67-.046-1.866-.3-.509-.667.333-1.328.408-1.907C1097.022,1275.571,1097.128,1275.061,1097.128,1275.061Z" transform="translate(-1054.341 -1197.265)" fill="#ef3c79"/>
          <path id="Trazado_630758" data-name="Trazado 630758" d="M1102.466,1273.7a3.886,3.886,0,0,0,.263,1.239s.186.247-.239.448a9.1,9.1,0,0,1-2.36-.3c.057-.5.2-1.493.2-1.493Z" transform="translate(-1057.516 -1196.28)" fill="#e9f5fb"/>
          <path id="Trazado_630759" data-name="Trazado 630759" d="M1049.805,1088.891c2.134,14.457,3.72,25.218,3.72,25.218a3.1,3.1,0,0,1-2.946.4s-3.9-10.473-8-22.658C1039.877,1083.82,1048.935,1082.994,1049.805,1088.891Z" transform="translate(-1008.312 -1036.476)" fill="#12263f"/>
          <g id="Grupo_906859" data-name="Grupo 906859" transform="translate(13.499 22.323)">
            <path id="Trazado_630760" data-name="Trazado 630760" d="M917.7,925.53c-.346-1.564-1.79-7.975-3.829-11.273-1.215-1.965-5-2.327-4.743,1.574.167,2.507,3.516,9.2,5.359,11.427l.013.015A6.257,6.257,0,0,1,917.7,925.53Z" transform="translate(-909.115 -912.821)" fill="#fff"/>
            <path id="Trazado_630761" data-name="Trazado 630761" d="M959.45,993.894l-.232-2.014c-1.426.271-5.356-.093-8.514-.384-1.446-.133-2.817-.26-3.838-.318-.021-.02-.109-.112-.246-.257a6.25,6.25,0,0,0-1.839,3.146C947.414,995.011,955.886,994.5,959.45,993.894Z" transform="translate(-939.344 -979.017)" fill="#fff"/>
            <path id="Trazado_630762" data-name="Trazado 630762" d="M1042.9,990.666c.161-.159.292-.379.476-.135.132.147-.378.845-.557.922-.488.056-.528-.183-.978-.064A4.4,4.4,0,0,0,1042.9,990.666Z" transform="translate(-1021.614 -978.594)" fill="#ffbe8c"/>
            <path id="Trazado_630763" data-name="Trazado 630763" d="M1042.6,994.205c-.011.005-.023.006-.03.009-1.1.28-2.448.5-2.864.582a12.582,12.582,0,0,1-.218-2.009c.548-.089,1.029-.359,1.51-.456.563-.121,1.853-.252,1.945-.263.261-.012.916-.089,1.121-.075a.5.5,0,0,1,.5.392c.006.1-.036.346-.677.4a11.279,11.279,0,0,0-1.238.153s.354.289.081.5c0,0,.334.227.057.486C1042.785,993.922,1042.9,994.131,1042.6,994.205Z" transform="translate(-1019.61 -979.924)" fill="#ffbe8c"/>
          </g>
          <path id="Trazado_630764" data-name="Trazado 630764" d="M921.624,921.7a17.394,17.394,0,0,0-2.034-5.447c-2.068-3.318-4.93-.811-4.767,1.491a24.148,24.148,0,0,0,.85,5.66Z" transform="translate(-900.448 -892.046)" fill="#af2056"/>
          <path id="Trazado_630765" data-name="Trazado 630765" d="M891.961,872.056a12.007,12.007,0,0,1-.665,4.445c.789,1.936,3.9,2.042,4.16.926-.452-1.227.147-3.456.161-3.669C894.846,873.845,892.214,872.256,891.961,872.056Z" transform="translate(-880.513 -855.947)" fill="#fff"/>
          <path id="Trazado_630766" data-name="Trazado 630766" d="M840.857,928.92c-1.7,2.3-9.262,3.4-16.178.445l-.318-4.34-1.367,10.029a1.9,1.9,0,0,1-1.742-.106c-1.85-20.37-.172-30.507,6.714-33.011.77-.278,3.191-.725,3.191-.725s1.615,1.636,2.727,1.636c1.524,0,1.432-.71,1.432-.71a18.442,18.442,0,0,1,2.537.888c1.409.888,1.667,2.7,1.71,4.443.013.593,0,1.18,0,1.721,0,.591.036,1.31.1,2.131.2,2.791.676,6.781.962,11.144.059.909.113,1.833.151,2.767C840.828,926.452,840.857,927.687,840.857,928.92Z" transform="translate(-820.553 -880.659)" fill="#ef3c79"/>
          <path id="Trazado_630767" data-name="Trazado 630767" d="M875.25,902.732c-1.111,0-2.868-1.515-2.868-1.515l-1.633.268a7.124,7.124,0,0,0-1.559.458c3.043,1.612,7.617,5.891,7.617,5.891A12.29,12.29,0,0,0,879.022,903a18.61,18.61,0,0,0-2.479-.856S876.344,902.732,875.25,902.732Z" transform="translate(-861.777 -880.663)" fill="#af2056"/>
          <path id="Trazado_630768" data-name="Trazado 630768" d="M862.294,946.508c-3.782-1.6-9-4.244-10.464-5.912a32.368,32.368,0,0,1-3.725-5.789l-.356.146a17.38,17.38,0,0,1-1.773-5.537c-.428-3.886,3.371-3.687,4.668-1.778a24.109,24.109,0,0,1,2.835,4.971l-.383.157s0,.006,0,.008c1.155,3.121,1.907,6.143,1.96,6.3.869.54,2.011,1.309,3.215,2.117,1.237.831,2.615,1.756,3.871,2.549C862.2,944.649,862.256,945.573,862.294,946.508Z" transform="translate(-842.073 -901.933)" fill="#af2056"/>
          <g id="Grupo_906861" data-name="Grupo 906861" transform="translate(5.735 29.372)">
            <g id="Grupo_906860" data-name="Grupo 906860" transform="translate(0 15.646)">
              <path id="Trazado_630769" data-name="Trazado 630769" d="M858.18,1061.714s0,0,0,0a.71.71,0,0,0,.708.708h16.66a.709.709,0,0,0,.708-.708v0Z" transform="translate(-858.179 -1061.714)" fill="#0b507f"/>
            </g>
            <path id="Trazado_630770" data-name="Trazado 630770" d="M969.164,960.043l-3.473,14.5c-.057.232-.006.9.857.9l14.116-.177V959.09l-10.221,0A1.293,1.293,0,0,0,969.164,960.043Z" transform="translate(-949.29 -959.087)" fill="#0b507f"/>
            <path id="Trazado_630771" data-name="Trazado 630771" d="M991.079,959.069H973.035a.414.414,0,0,0-.4.3L968.919,974.9a.416.416,0,0,0,.4.526h16.8a2.049,2.049,0,0,0,1.975-1.5l3.384-14.33A.415.415,0,0,0,991.079,959.069Z" transform="translate(-952.026 -959.069)" fill="#0b5999"/>
            <path id="Trazado_630772" data-name="Trazado 630772" d="M980.687,1037.124h-4.6l.928-4.208Z" transform="translate(-958.119 -1021.659)" fill="#0b507f"/>
            <path id="Trazado_630773" data-name="Trazado 630773" d="M991.564,967.249l.918-4.164h1.3l12.941,14.852h-5.851Z" transform="translate(-971.233 -962.473)" fill="#0b507f"/>
          </g>
          <g id="Grupo_906862" data-name="Grupo 906862" transform="translate(4.111 22.977)">
            <path id="Trazado_630774" data-name="Trazado 630774" d="M979.2,1040.527a3.972,3.972,0,0,1-1.12.425.543.543,0,0,0,.628.5,2.426,2.426,0,0,0,.967-.954C979.674,1040.164,979.381,1040.411,979.2,1040.527Z" transform="translate(-958.178 -1021.548)" fill="#fff"/>
            <path id="Trazado_630775" data-name="Trazado 630775" d="M866.384,938.285c-3.425-1.183-11.135-4.8-12.974-6.892a32.769,32.769,0,0,1-3.766-5.869,18.958,18.958,0,0,1-2.087-5.312c-.429-3.886,3.371-3.688,4.668-1.778a25.291,25.291,0,0,1,2.454,5.137c1.153,3.122,1.907,6.143,1.96,6.3.869.54,2.01,1.308,3.214,2.116a54.09,54.09,0,0,0,7.125,4.354.116.116,0,0,0,.033.012c.046.018.092.036.135.049v0l-.755,1.861Z" transform="translate(-847.523 -917.109)" fill="#fff"/>
            <path id="Trazado_630776" data-name="Trazado 630776" d="M971.1,1043.491a14.476,14.476,0,0,1,1.586.583c.526.215,1.644.825,1.723.868a7.159,7.159,0,0,1,.952.562,1.081,1.081,0,0,1,.178.619.324.324,0,0,1-.278.234c0,.277-.685.141-.67.208.06.277-.3.444-1.166-.055-.052-.03-2.418-.835-3.152-1.154A19.055,19.055,0,0,1,971.1,1043.491Z" transform="translate(-951.56 -1024.227)" fill="#fff"/>
          </g>
          <path id="Trazado_630777" data-name="Trazado 630777" d="M849.329,925.75a17.385,17.385,0,0,1-1.772-5.538c-.429-3.886,3.371-3.688,4.668-1.778a24.105,24.105,0,0,1,2.834,4.972Z" transform="translate(-843.412 -894.132)" fill="#ef3c79"/>
          <path id="Trazado_630778" data-name="Trazado 630778" d="M899.2,841.04a3.1,3.1,0,0,0-3.616,2.664c0,.018-.365,1.843-.365,1.843-.266,1.339,1.38,3.853,2.595,3.837,2.872-.036,4.462-4.971,4.481-5.56C902.351,842.179,900.868,841.371,899.2,841.04Z" transform="translate(-883.814 -829.606)" fill="#fff"/>
          <path id="Trazado_630779" data-name="Trazado 630779" d="M891.555,853.75c-.471-.026-.953.579-.978,1.049a1.628,1.628,0,0,0,.911,1.294,21.982,21.982,0,0,0,.82-2.071A1.547,1.547,0,0,0,891.555,853.75Z" transform="translate(-879.903 -840.43)" fill="#fff"/>
        </g>
        <g id="Grupo_906868" data-name="Grupo 906868" transform="translate(515.525 126.665)">
          <path id="Trazado_630780" data-name="Trazado 630780" d="M1712.044,525.2c-3.122-1.1-22.424-.557-30.483,1.082-3.429.7-3.145,5.009-.06,6.2,8.241,3.169,18.774,3.312,26.028,2.693C1713.9,534.628,1715.414,526.392,1712.044,525.2Z" transform="translate(-1670.822 -484.752)" fill="#0b5999"/>
          <path id="Trazado_630781" data-name="Trazado 630781" d="M1836.769,704.233l-1.256,1.661a7.446,7.446,0,0,1,.844.845c.488.651-.7,3.884.183,4.228.415.162,1.111-.79,1.416-1.569.283-.722.821-2.078.986-2.522.211-.567.755-1.465.626-1.757-.337-.757-1.307-.344-1.844-.554C1837.261,704.383,1836.769,704.233,1836.769,704.233Z" transform="translate(-1803.403 -636.984)" fill="#0b5999"/>
          <path id="Trazado_630782" data-name="Trazado 630782" d="M1834.843,704.757a3.847,3.847,0,0,1,.947.816s.125.279.5.007a8.967,8.967,0,0,0,.867-2.182c-.461-.189-1.383-.541-1.383-.541Z" transform="translate(-1802.835 -635.818)" fill="#fff"/>
          <path id="Trazado_630783" data-name="Trazado 630783" d="M1736.686,507.284c-3.283-.427-23.7,4.713-31.242,8-3.207,1.4-2.03,5.555,1.236,6.071,8.721,1.378,20.461,1.268,27.425-.852C1740.222,518.64,1740.23,507.745,1736.686,507.284Z" transform="translate(-1691.557 -470.034)" fill="#3080b7"/>
          <path id="Trazado_630784" data-name="Trazado 630784" d="M1704.951,567.05c10.622,9.751,18.531,17.009,18.531,17.009a4.383,4.383,0,0,0,2.2-1.839s-6.482-9.136-14.159-19.234C1706.463,556.328,1700.618,563.072,1704.951,567.05Z" transform="translate(-1691.46 -514.885)" fill="#3080b7"/>
          <path id="Trazado_630785" data-name="Trazado 630785" d="M1630.868,721.655l-2.061-.3a7.447,7.447,0,0,1-.334,1.147c-.335.741-3.739,1.262-3.616,2.2.058.441,1.228.593,2.057.485.769-.1,2.216-.282,2.685-.351.6-.089,1.648-.045,1.842-.3.5-.659-.328-1.31-.4-1.882C1630.973,722.158,1630.868,721.655,1630.868,721.655Z" transform="translate(-1624.854 -651.496)" fill="#0b5999"/>
          <path id="Trazado_630786" data-name="Trazado 630786" d="M1648.635,720.3a3.822,3.822,0,0,1-.26,1.223s-.184.244.236.442a8.963,8.963,0,0,0,2.329-.291c-.057-.5-.193-1.473-.193-1.473Z" transform="translate(-1644.756 -650.519)" fill="#fff"/>
          <path id="Trazado_630787" data-name="Trazado 630787" d="M1652.271,537.952c-2.106,14.265-3.672,24.884-3.672,24.884a3.063,3.063,0,0,0,2.907.4s3.849-10.334,7.894-22.358C1662.067,532.947,1653.129,532.133,1652.271,537.952Z" transform="translate(-1644.98 -492.837)" fill="#0b5999"/>
          <path id="Trazado_630788" data-name="Trazado 630788" d="M1864.889,268.746c.984,3.139,1.812,3.245,2.966,4.028,5.7,3.872-1.18,13.052-2.576,9.9-.545-1.229,2.8-3.143-2.216-4.9-5.545-1.941-3.845-4.658-3.727-6.484.448-6.918-2.686-5.034-3.341-3.593-.389.853-.858.54-1.069-.132C1854.069,264.827,1861.624,258.332,1864.889,268.746Z" transform="translate(-1819.8 -263.04)" fill="#ef3c79"/>
          <g id="Grupo_906864" data-name="Grupo 906864" transform="translate(13.115 16.137)">
            <path id="Trazado_630789" data-name="Trazado 630789" d="M1724.453,503.676a3.917,3.917,0,0,0,1.144.3.536.536,0,0,1-.562.557,2.39,2.39,0,0,1-1.051-.831C1723.946,503.371,1724.26,503.581,1724.453,503.676Z" transform="translate(-1721.986 -483.003)" fill="#fff"/>
            <path id="Trazado_630790" data-name="Trazado 630790" d="M1711.97,506.609c.073-.047,1.115-.71,1.609-.951.416-.208.885-.333,1.347-.59a12,12,0,0,1,1.07,1.67c-.689.357-4.25,2.363-4.095,1.451.011-.066-.628.261-.662-.157a.4.4,0,0,1-.284-.208.473.473,0,0,1,.132-.61C1711.234,507.081,1711.766,506.755,1711.97,506.609Z" transform="translate(-1710.894 -484.314)" fill="#fff"/>
            <path id="Trazado_630791" data-name="Trazado 630791" d="M1745.9,382.193c.054-.256,1.071-7.895,3.087-11.7,1.068-2.014,4.773-2.618,4.773,1.239,0,2.48-2.859,9.292-4.529,11.6-1.576,2.247-8.746,6.634-11.978,8.162l-.95-1.76c1.306-.586,4.281-3.1,6.671-5.12C1744.07,383.693,1745.107,382.817,1745.9,382.193Z" transform="translate(-1732.431 -368.908)" fill="#fff"/>
          </g>
          <path id="Trazado_630792" data-name="Trazado 630792" d="M1803.174,378.451a17.186,17.186,0,0,1,1.646-5.5c1.819-3.4,4.8-1.121,4.792,1.157a23.794,23.794,0,0,1-.467,5.628Z" transform="translate(-1775.994 -354.734)" fill="#0b507f"/>
          <path id="Trazado_630793" data-name="Trazado 630793" d="M1847.123,323.992a11.9,11.9,0,0,0,.657,4.386c-.779,1.91-3.853,2.015-4.1.913.446-1.211-.145-3.41-.159-3.62C1844.277,325.758,1846.874,324.189,1847.123,323.992Z" transform="translate(-1810.187 -314.701)" fill="#fff"/>
          <path id="Trazado_630794" data-name="Trazado 630794" d="M1809.853,380.1c1.681,2.271,9.139,3.352,15.963.439l.314-4.282,1.348,9.9a1.873,1.873,0,0,0,1.719-.1c1.826-20.1.17-30.1-6.625-32.573-.759-.274-3.149-.715-3.149-.715s-1.592,1.614-2.69,1.614c-1.5,0-1.414-.7-1.414-.7a18.18,18.18,0,0,0-2.5.876c-1.39.876-1.645,2.662-1.687,4.385-.013.585,0,1.165,0,1.7,0,.583-.036,1.293-.094,2.1-.2,2.754-.667,6.691-.949,11-.059.9-.111,1.809-.148,2.731C1809.882,377.668,1809.853,378.887,1809.853,380.1Z" transform="translate(-1781.655 -339.088)" fill="#0b5999"/>
          <path id="Trazado_630795" data-name="Trazado 630795" d="M1833.385,354.261c1.1,0,2.829-1.495,2.829-1.495l1.611.264a7,7,0,0,1,1.538.451c-3,1.591-7.516,5.813-7.516,5.813a12.122,12.122,0,0,1-2.184-4.771,18.338,18.338,0,0,1,2.446-.845S1832.305,354.261,1833.385,354.261Z" transform="translate(-1798.446 -339.089)" fill="#0b507f"/>
          <path id="Trazado_630796" data-name="Trazado 630796" d="M1820.951,300.276a2.933,2.933,0,0,1,3.462,2.466c0,.017.374,1.738.374,1.738.271,1.262-1.25,3.666-2.4,3.67-2.719.008-4.3-4.638-4.324-5.195C1817.987,301.4,1819.378,300.613,1820.951,300.276Z" transform="translate(-1788.612 -294.543)" fill="#fff"/>
          <path id="Trazado_630797" data-name="Trazado 630797" d="M1813.705,288.83s2.87-3.166,5.709-1.771c4.276,2.1,1.284,6.83,1.284,6.83-.845-1.039-2.565-5.115-6.153-4.028,0,0-1.674,1.483-.276,4.178C1812.889,293.824,1811.193,290.1,1813.705,288.83Z" transform="translate(-1783.827 -283.097)" fill="#ef3c79"/>
          <path id="Trazado_630798" data-name="Trazado 630798" d="M1810.39,397.456c3.732-1.579,8.876-4.188,10.324-5.834a32.035,32.035,0,0,0,3.677-5.712l.351.144a17.151,17.151,0,0,0,1.75-5.463c.422-3.835-3.327-3.638-4.606-1.754a23.784,23.784,0,0,0-2.8,4.905l.378.155s0,.006,0,.008c-1.14,3.079-1.881,6.061-1.934,6.216-.857.533-1.984,1.292-3.172,2.089-1.221.819-2.58,1.733-3.82,2.515C1810.479,395.622,1810.427,396.534,1810.39,397.456Z" transform="translate(-1782.11 -360.078)" fill="#0b507f"/>
          <path id="Trazado_630799" data-name="Trazado 630799" d="M1854.888,314.246a1.54,1.54,0,0,1-.51,1.408,20.949,20.949,0,0,1-1.264-1.686,1.458,1.458,0,0,1,.621-.436A1.1,1.1,0,0,1,1854.888,314.246Z" transform="translate(-1818.322 -305.812)" fill="#fff"/>
          <path id="Trazado_630800" data-name="Trazado 630800" d="M1848.6,282.44a1.061,1.061,0,0,1,.659-.02c.967.263,1.15.83,1.06,1.429a5.637,5.637,0,0,0-2.4-.8A1.372,1.372,0,0,1,1848.6,282.44Z" transform="translate(-1813.922 -279.43)" fill="#0b507f"/>
          <g id="Grupo_906866" data-name="Grupo 906866" transform="translate(3.629 22.378)">
            <g id="Grupo_906865" data-name="Grupo 906865" transform="translate(21.109 15.438)">
              <path id="Trazado_630801" data-name="Trazado 630801" d="M1804.987,511.134s0,0,0,0a.7.7,0,0,1-.7.7H1787.85a.7.7,0,0,1-.7-.7v0Z" transform="translate(-1787.151 -511.134)" fill="#af2056"/>
            </g>
            <path id="Trazado_630802" data-name="Trazado 630802" d="M1712.409,410.811l3.427,14.31c.057.228.006.887-.847.887l-13.928-.175V409.87l10.086,0A1.275,1.275,0,0,1,1712.409,410.811Z" transform="translate(-1693.075 -409.867)" fill="#af2056"/>
            <path id="Trazado_630803" data-name="Trazado 630803" d="M1649.075,409.852h17.8a.409.409,0,0,1,.395.3l3.667,15.321a.41.41,0,0,1-.395.519h-16.578a2.022,2.022,0,0,1-1.949-1.482l-3.339-14.14A.41.41,0,0,1,1649.075,409.852Z" transform="translate(-1648.665 -409.852)" fill="#ef3c79"/>
            <path id="Trazado_630804" data-name="Trazado 630804" d="M1758.07,486.869h4.534l-.916-4.152Z" transform="translate(-1741.394 -471.61)" fill="#af2056"/>
            <path id="Trazado_630805" data-name="Trazado 630805" d="M1689.355,417.924l-.906-4.109h-1.287l-12.769,14.655h5.773Z" transform="translate(-1670.47 -413.211)" fill="#af2056"/>
          </g>
          <g id="Grupo_906867" data-name="Grupo 906867" transform="translate(20.514 16.067)">
            <path id="Trazado_630806" data-name="Trazado 630806" d="M1776.005,490.229a3.936,3.936,0,0,0,1.105.42.537.537,0,0,1-.62.492,2.394,2.394,0,0,1-.953-.942C1775.536,489.871,1775.824,490.114,1776.005,490.229Z" transform="translate(-1773.084 -471.501)" fill="#fff"/>
            <path id="Trazado_630807" data-name="Trazado 630807" d="M1788.408,389.343c3.38-1.168,10.988-4.74,12.8-6.8a32.361,32.361,0,0,0,3.716-5.791,18.75,18.75,0,0,0,2.06-5.241c.422-3.834-3.327-3.639-4.607-1.755a24.983,24.983,0,0,0-2.421,5.068c-1.137,3.08-1.881,6.062-1.934,6.217-.857.533-1.983,1.291-3.171,2.088a53.377,53.377,0,0,1-7.03,4.3.125.125,0,0,1-.032.012c-.046.017-.092.035-.134.048v0l.745,1.836Z" transform="translate(-1783.356 -368.448)" fill="#fff"/>
            <path id="Trazado_630808" data-name="Trazado 630808" d="M1763.823,493.153a14.243,14.243,0,0,0-1.565.575c-.518.211-1.623.814-1.7.856a6.976,6.976,0,0,0-.94.555,1.067,1.067,0,0,0-.176.611.32.32,0,0,0,.274.231c0,.274.676.138.661.2-.059.274.3.438,1.15-.054.051-.029,2.385-.824,3.11-1.14A18.935,18.935,0,0,0,1763.823,493.153Z" transform="translate(-1759.438 -474.145)" fill="#fff"/>
          </g>
          <path id="Trazado_630809" data-name="Trazado 630809" d="M1871.556,376.974a17.167,17.167,0,0,0,1.75-5.464c.422-3.834-3.327-3.639-4.607-1.755a23.791,23.791,0,0,0-2.8,4.906Z" transform="translate(-1829.161 -352.381)" fill="#0b5999"/>
        </g>
        <g id="Grupo_906896" data-name="Grupo 906896" transform="translate(426.472 102.14)">
          <g id="Grupo_906883" data-name="Grupo 906883" transform="translate(0 36.197)">
            <g id="Grupo_906869" data-name="Grupo 906869">
              <path id="Trazado_630810" data-name="Trazado 630810" d="M1050.13,358.7l46.025-.021a9.523,9.523,0,0,1,9.527,9.519l.006,12.037a9.523,9.523,0,0,1-9.519,9.526l-25.256.016-18.026,15.249h-2.491l4.07-15.245-4.321,0a9.522,9.522,0,0,1-9.526-9.519l-.006-12.037A9.522,9.522,0,0,1,1050.13,358.7Z" transform="translate(-1040.611 -358.682)" fill="#21cbae"/>
              <path id="Trazado_630811" data-name="Trazado 630811" d="M1066.472,358.7l46.025-.021a9.523,9.523,0,0,1,9.526,9.519l.006,12.037a9.523,9.523,0,0,1-9.519,9.526l-25.256.016-20.517,15.249,4.069-15.245-4.321,0a9.522,9.522,0,0,1-9.527-9.519l-.006-12.037A9.522,9.522,0,0,1,1066.472,358.7Z" transform="translate(-1054.462 -358.682)" fill="#21cbae"/>
            </g>
            <g id="Grupo_906882" data-name="Grupo 906882" transform="translate(10.905 4.883)">
              <g id="Grupo_906870" data-name="Grupo 906870" transform="translate(38.904)">
                <path id="Trazado_630812" data-name="Trazado 630812" d="M1376.693,390.715l-8.668.008a.583.583,0,0,0-.633.626.775.775,0,0,0,.782.626l8.668-.008a.582.582,0,0,0,.633-.626A.775.775,0,0,0,1376.693,390.715Z" transform="translate(-1367.388 -390.715)" fill="#ddd"/>
              </g>
              <g id="Grupo_906871" data-name="Grupo 906871" transform="translate(22.246 0.009)">
                <path id="Trazado_630813" data-name="Trazado 630813" d="M1271.092,390.775l-12.354,0a.582.582,0,0,0-.632.626.775.775,0,0,0,.782.626l12.355,0a.582.582,0,0,0,.632-.627A.775.775,0,0,0,1271.092,390.775Z" transform="translate(-1258.101 -390.775)" fill="#ddd"/>
              </g>
              <g id="Grupo_906872" data-name="Grupo 906872" transform="translate(0.043 0.014)">
                <path id="Trazado_630814" data-name="Trazado 630814" d="M1131.337,390.806l-18.268.007a.582.582,0,0,0-.632.626.774.774,0,0,0,.782.626l18.268-.007a.582.582,0,0,0,.632-.627A.775.775,0,0,0,1131.337,390.806Z" transform="translate(-1112.433 -390.806)" fill="#ddd"/>
              </g>
              <g id="Grupo_906873" data-name="Grupo 906873" transform="translate(34.337 3.983)">
                <path id="Trazado_630815" data-name="Trazado 630815" d="M1351.314,416.849l-13.256,0a.582.582,0,0,0-.632.627.774.774,0,0,0,.781.626l13.256,0a.582.582,0,0,0,.632-.626A.776.776,0,0,0,1351.314,416.849Z" transform="translate(-1337.422 -416.849)" fill="#ddd"/>
              </g>
              <g id="Grupo_906874" data-name="Grupo 906874" transform="translate(15.48 3.99)">
                <path id="Trazado_630816" data-name="Trazado 630816" d="M1229.162,416.889l-14.812.008a.583.583,0,0,0-.633.626.776.776,0,0,0,.782.626l14.813-.008a.582.582,0,0,0,.632-.626A.773.773,0,0,0,1229.162,416.889Z" transform="translate(-1213.712 -416.889)" fill="#ddd"/>
              </g>
              <g id="Grupo_906875" data-name="Grupo 906875" transform="translate(0 3.999)">
                <path id="Trazado_630817" data-name="Trazado 630817" d="M1124.134,416.951l-11.346,0a.582.582,0,0,0-.632.626.776.776,0,0,0,.783.626l11.346,0a.583.583,0,0,0,.633-.626A.776.776,0,0,0,1124.134,416.951Z" transform="translate(-1112.151 -416.951)" fill="#ddd"/>
              </g>
              <g id="Grupo_906876" data-name="Grupo 906876" transform="translate(21.695 8.164)">
                <path id="Trazado_630818" data-name="Trazado 630818" d="M1273.018,444.279l-17.9.01a.583.583,0,0,0-.633.627.776.776,0,0,0,.782.626l17.9-.01a.583.583,0,0,0,.632-.626A.776.776,0,0,0,1273.018,444.279Z" transform="translate(-1254.483 -444.279)" fill="#ddd"/>
              </g>
              <g id="Grupo_906877" data-name="Grupo 906877" transform="translate(0.043 8.178)">
                <path id="Trazado_630819" data-name="Trazado 630819" d="M1130.838,444.365l-17.767.007a.582.582,0,0,0-.633.626.775.775,0,0,0,.782.626l17.769-.006a.582.582,0,0,0,.632-.626A.775.775,0,0,0,1130.838,444.365Z" transform="translate(-1112.433 -444.365)" fill="#ddd"/>
              </g>
              <g id="Grupo_906878" data-name="Grupo 906878" transform="translate(0.043 12.068)">
                <path id="Trazado_630820" data-name="Trazado 630820" d="M1141.431,469.887l-28.362.011a.583.583,0,0,0-.633.626.776.776,0,0,0,.782.626l28.362-.011a.582.582,0,0,0,.632-.626A.775.775,0,0,0,1141.431,469.887Z" transform="translate(-1112.433 -469.887)" fill="#ddd"/>
              </g>
              <g id="Grupo_906879" data-name="Grupo 906879" transform="translate(0.043 16.022)">
                <path id="Trazado_630821" data-name="Trazado 630821" d="M1160.572,495.829l-47.5.018a.583.583,0,0,0-.633.627.775.775,0,0,0,.782.625l47.5-.018a.582.582,0,0,0,.632-.626A.773.773,0,0,0,1160.572,495.829Z" transform="translate(-1112.433 -495.829)" fill="#ddd"/>
              </g>
              <g id="Grupo_906880" data-name="Grupo 906880" transform="translate(0.043 20.1)">
                <path id="Trazado_630822" data-name="Trazado 630822" d="M1142.162,522.582l-29.093.011a.582.582,0,0,0-.632.626.774.774,0,0,0,.782.626l29.093-.011a.583.583,0,0,0,.633-.626A.776.776,0,0,0,1142.162,522.582Z" transform="translate(-1112.433 -522.582)" fill="#ddd"/>
              </g>
              <g id="Grupo_906881" data-name="Grupo 906881" transform="translate(32.087 12.06)">
                <path id="Trazado_630823" data-name="Trazado 630823" d="M1338.8,469.835l-15.505.007a.583.583,0,0,0-.632.626.775.775,0,0,0,.782.626l15.506-.007a.583.583,0,0,0,.632-.626A.775.775,0,0,0,1338.8,469.835Z" transform="translate(-1322.659 -469.835)" fill="#ddd"/>
              </g>
            </g>
          </g>
          <g id="Grupo_906895" data-name="Grupo 906895" transform="translate(66.697 0)">
            <g id="Grupo_906884" data-name="Grupo 906884">
              <path id="Trazado_630824" data-name="Trazado 630824" d="M1535.109,121.224l-35.094-.018a8.034,8.034,0,0,0-8.037,8.032l0,10.155A8.034,8.034,0,0,0,1500,147.43l17.571.013,14.378,9.959h2.1l-2.6-9.956,3.646,0a8.033,8.033,0,0,0,8.037-8.031l.005-10.155A8.034,8.034,0,0,0,1535.109,121.224Z" transform="translate(-1489.871 -121.206)" fill="#0b5999"/>
              <path id="Trazado_630825" data-name="Trazado 630825" d="M1521.321,121.224l-35.094-.018a8.034,8.034,0,0,0-8.037,8.032l0,10.155a8.034,8.034,0,0,0,8.031,8.037l17.571.013,16.48,9.959-2.6-9.956,3.646,0a8.034,8.034,0,0,0,8.037-8.031l.005-10.155A8.034,8.034,0,0,0,1521.321,121.224Z" transform="translate(-1478.185 -121.206)" fill="#3080b7"/>
            </g>
            <g id="Grupo_906894" data-name="Grupo 906894" transform="translate(5.863 4.364)">
              <g id="Grupo_906885" data-name="Grupo 906885" transform="translate(29.355)">
                <path id="Trazado_630826" data-name="Trazado 630826" d="M1720.639,149.835l-10.765,0a.582.582,0,0,0-.632.626.774.774,0,0,0,.781.626l10.766,0a.582.582,0,0,0,.632-.626A.776.776,0,0,0,1720.639,149.835Z" transform="translate(-1709.238 -149.835)" fill="#fff"/>
              </g>
              <g id="Grupo_906886" data-name="Grupo 906886" transform="translate(10.498 0.006)">
                <path id="Trazado_630827" data-name="Trazado 630827" d="M1600.978,149.875l-14.812.008a.583.583,0,0,0-.633.626.776.776,0,0,0,.782.626l14.813-.008a.582.582,0,0,0,.632-.626A.773.773,0,0,0,1600.978,149.875Z" transform="translate(-1585.528 -149.875)" fill="#fff"/>
              </g>
              <g id="Grupo_906887" data-name="Grupo 906887" transform="translate(0 0.016)">
                <path id="Trazado_630828" data-name="Trazado 630828" d="M1523.653,149.937l-6.364,0a.583.583,0,0,0-.632.627.776.776,0,0,0,.783.626l6.364,0a.583.583,0,0,0,.633-.626A.776.776,0,0,0,1523.653,149.937Z" transform="translate(-1516.652 -149.937)" fill="#fff"/>
              </g>
              <g id="Grupo_906888" data-name="Grupo 906888" transform="translate(16.713 4.181)">
                <path id="Trazado_630829" data-name="Trazado 630829" d="M1642.345,177.265l-15.408.01a.583.583,0,0,0-.633.626.776.776,0,0,0,.782.626l15.408-.01a.582.582,0,0,0,.632-.626A.776.776,0,0,0,1642.345,177.265Z" transform="translate(-1626.3 -177.265)" fill="#fff"/>
              </g>
              <g id="Grupo_906889" data-name="Grupo 906889" transform="translate(0.043 4.194)">
                <path id="Trazado_630830" data-name="Trazado 630830" d="M1530.357,177.35l-12.785.007a.582.582,0,0,0-.633.626.775.775,0,0,0,.781.626l12.786-.006a.582.582,0,0,0,.632-.626A.775.775,0,0,0,1530.357,177.35Z" transform="translate(-1516.935 -177.35)" fill="#fff"/>
              </g>
              <g id="Grupo_906890" data-name="Grupo 906890" transform="translate(0.043 8.084)">
                <path id="Trazado_630831" data-name="Trazado 630831" d="M1540.951,202.873l-23.38.011a.583.583,0,0,0-.633.626.776.776,0,0,0,.782.626l23.38-.011a.582.582,0,0,0,.632-.626A.775.775,0,0,0,1540.951,202.873Z" transform="translate(-1516.934 -202.873)" fill="#fff"/>
              </g>
              <g id="Grupo_906891" data-name="Grupo 906891" transform="translate(0.043 12.038)">
                <path id="Trazado_630832" data-name="Trazado 630832" d="M1557.6,228.814l-40.029.018a.583.583,0,0,0-.633.627.775.775,0,0,0,.782.625l40.029-.018a.581.581,0,0,0,.631-.626A.773.773,0,0,0,1557.6,228.814Z" transform="translate(-1516.934 -228.814)" fill="#fff"/>
              </g>
              <g id="Grupo_906892" data-name="Grupo 906892" transform="translate(0.043 16.116)">
                <path id="Trazado_630833" data-name="Trazado 630833" d="M1541.682,255.568l-24.111.011a.582.582,0,0,0-.632.626.774.774,0,0,0,.781.626l24.111-.011a.583.583,0,0,0,.633-.626A.776.776,0,0,0,1541.682,255.568Z" transform="translate(-1516.935 -255.568)" fill="#fff"/>
              </g>
              <g id="Grupo_906893" data-name="Grupo 906893" transform="translate(27.105 8.076)">
                <path id="Trazado_630834" data-name="Trazado 630834" d="M1708.126,202.821l-13.014.007a.583.583,0,0,0-.633.626.775.775,0,0,0,.782.626l13.015-.007a.582.582,0,0,0,.632-.626A.775.775,0,0,0,1708.126,202.821Z" transform="translate(-1694.475 -202.821)" fill="#fff"/>
              </g>
            </g>
          </g>
        </g>
      </g>
      <g id="Grupo_907101" data-name="Grupo 907101" transform="translate(-2324.342 -1303.487)">
        <g id="Grupo_907097" data-name="Grupo 907097" transform="translate(2809.341 2005.346)">
          <path id="Trazado_631149" data-name="Trazado 631149" d="M2814.3,2050.741l-4.357,3.51a1.69,1.69,0,0,0-.576,1.589l16.676,99.968h6.014Z" transform="translate(-2809.341 -2050.222)" fill="#12263f"/>
          <path id="Trazado_631150" data-name="Trazado 631150" d="M2840.876,2154.732h113.65L2935.959,2050.9a2.034,2.034,0,0,0-1.941-1.75H2824.4a2.12,2.12,0,0,0-1.942,2.584Z" transform="translate(-2818.162 -2049.146)" fill="#0b5999"/>
          <path id="Trazado_631151" data-name="Trazado 631151" d="M2841.155,2064.97l.323,1.818,15.522,86.8,102.56-.027h1.5l-15.841-88.595Z" transform="translate(-2830.796 -2059.817)" fill="#93acbf"/>
          <path id="Trazado_631152" data-name="Trazado 631152" d="M2842.149,2070.553l15.521,86.8,102.56-.027-15.845-86.777Z" transform="translate(-2831.466 -2063.583)" fill="#fff"/>
          <rect id="Rectngulo_303845" data-name="Rectngulo 303845" width="112.993" height="7.925" transform="translate(177.125 105.586) rotate(180)" fill="#063f6e"/>
          <path id="Rectngulo_303846" data-name="Rectngulo 303846" d="M0,0H55.113a0,0,0,0,1,0,0V7.925a0,0,0,0,1,0,0H4.058A4.058,4.058,0,0,1,0,3.867V0A0,0,0,0,1,0,0Z" transform="translate(72.041 105.586) rotate(180)" fill="#12263f"/>
          <path id="Trazado_631153" data-name="Trazado 631153" d="M3002.328,2054.99c.066.758.475,1.335.913,1.29s.74-.7.674-1.456-.475-1.335-.913-1.29S3002.262,2054.232,3002.328,2054.99Z" transform="translate(-2939.482 -2052.104)" fill="#586773"/>
          <g id="Grupo_907096" data-name="Grupo 907096" transform="translate(10.652 6.94)">
            <path id="Trazado_631154" data-name="Trazado 631154" d="M2944.507,2071.882l15.861,86.321-102.591.072-15.467-86.321Z" transform="translate(-2842.228 -2071.419)" fill="#e5f0f8"/>
            <path id="Trazado_631155" data-name="Trazado 631155" d="M2944.25,2070.46l1.366,7.434-102.228.071-1.332-7.434Z" transform="translate(-2842.056 -2070.46)" fill="#bbdbf3"/>
            <g id="Grupo_907095" data-name="Grupo 907095" transform="translate(96.091 1.945)">
              <line id="Lnea_435" data-name="Lnea 435" y1="4.013" x2="3.29" transform="translate(0.736)" fill="none" stroke="#fff" stroke-linecap="round" stroke-linejoin="round" stroke-width="1.982"/>
              <line id="Lnea_436" data-name="Lnea 436" x1="4.762" y1="4.008" transform="translate(0 0.003)" fill="none" stroke="#fff" stroke-linecap="round" stroke-linejoin="round" stroke-width="1.982"/>
            </g>
          </g>
        </g>
        <g id="Grupo_907099" data-name="Grupo 907099" transform="translate(2834.019 1984.198)">
          <rect id="Rectngulo_303847" data-name="Rectngulo 303847" width="127.839" height="17.668" transform="translate(0 0)" fill="#1c9e88" stroke="#1c9e88" stroke-miterlimit="10" stroke-width="3.177"/>
          <rect id="Rectngulo_303848" data-name="Rectngulo 303848" width="127.839" height="17.668" transform="translate(4.584 0)" fill="#fff" stroke="#21cbae" stroke-miterlimit="10" stroke-width="3.177"/>
          <path id="Trazado_631156" data-name="Trazado 631156" d="M2920.668,1998.288H2918.9v-2.417a2.354,2.354,0,0,0-4.708,0v2.417h-1.765a.211.211,0,0,0-.212.209v6.417a.21.21,0,0,0,.212.209h8.238a.21.21,0,0,0,.212-.209V1998.5A.211.211,0,0,0,2920.668,1998.288Zm-5.727-2.417a1.608,1.608,0,0,1,3.216,0v2.417h-3.216Z" transform="translate(-2903.398 -1990.496)" fill="#0b5999"/>
          <g id="Grupo_907098" data-name="Grupo 907098" transform="translate(21.363 4.232)">
            <path id="Trazado_631157" data-name="Trazado 631157" d="M2950.738,1997.195h.972v3.8h.021a1.425,1.425,0,0,1,.638-.658,2.126,2.126,0,0,1,1.048-.252,2.241,2.241,0,0,1,.707.112,1.6,1.6,0,0,1,.594.348,1.674,1.674,0,0,1,.405.6,2.292,2.292,0,0,1,.152.873v3.266h-.973v-3a1.677,1.677,0,0,0-.1-.6,1.1,1.1,0,0,0-.26-.407.976.976,0,0,0-.372-.225,1.4,1.4,0,0,0-.438-.069,1.6,1.6,0,0,0-.562.1,1.172,1.172,0,0,0-.454.305,1.432,1.432,0,0,0-.3.53,2.393,2.393,0,0,0-.108.76v2.613h-.972Z" transform="translate(-2950.738 -1997.195)" fill="#0b5999"/>
            <path id="Trazado_631158" data-name="Trazado 631158" d="M2970.386,2004.355h-1.394v2.3c0,.143,0,.284.011.423a1.1,1.1,0,0,0,.081.375.615.615,0,0,0,.216.268.745.745,0,0,0,.427.1,2.062,2.062,0,0,0,.356-.032,1.029,1.029,0,0,0,.335-.118v.878a1.273,1.273,0,0,1-.448.134,3.377,3.377,0,0,1-.427.038,1.966,1.966,0,0,1-.869-.156,1.065,1.065,0,0,1-.454-.4,1.29,1.29,0,0,1-.173-.551q-.027-.305-.027-.616v-2.645H2966.9v-.835h1.124v-1.424h.972v1.424h1.394Z" transform="translate(-2961.635 -2000.499)" fill="#0b5999"/>
            <path id="Trazado_631159" data-name="Trazado 631159" d="M2982.663,2004.355h-1.394v2.3c0,.143,0,.284.011.423a1.1,1.1,0,0,0,.081.375.614.614,0,0,0,.216.268.746.746,0,0,0,.427.1,2.06,2.06,0,0,0,.356-.032,1.027,1.027,0,0,0,.335-.118v.878a1.27,1.27,0,0,1-.448.134,3.377,3.377,0,0,1-.427.038,1.965,1.965,0,0,1-.869-.156,1.064,1.064,0,0,1-.454-.4,1.29,1.29,0,0,1-.173-.551q-.027-.305-.027-.616v-2.645h-1.124v-.835h1.124v-1.424h.972v1.424h1.394Z" transform="translate(-2969.914 -2000.499)" fill="#0b5999"/>
            <path id="Trazado_631160" data-name="Trazado 631160" d="M2993.739,2006.2h.972v.728h.021a1.85,1.85,0,0,1,.773-.632,2.4,2.4,0,0,1,1.01-.225,2.747,2.747,0,0,1,1.075.2,2.39,2.39,0,0,1,.821.568,2.547,2.547,0,0,1,.524.851,3.091,3.091,0,0,1,0,2.1,2.487,2.487,0,0,1-.524.846,2.415,2.415,0,0,1-.821.562,2.739,2.739,0,0,1-1.075.2,2.388,2.388,0,0,1-1.037-.231,1.767,1.767,0,0,1-.746-.626h-.021v3.748h-.972Zm2.657.771a1.768,1.768,0,0,0-.7.134,1.554,1.554,0,0,0-.53.364,1.6,1.6,0,0,0-.335.557,2.192,2.192,0,0,0,0,1.424,1.6,1.6,0,0,0,.335.557,1.55,1.55,0,0,0,.53.364,1.91,1.91,0,0,0,1.4,0,1.551,1.551,0,0,0,.529-.364,1.6,1.6,0,0,0,.335-.557,2.188,2.188,0,0,0,0-1.424,1.6,1.6,0,0,0-.335-.557,1.555,1.555,0,0,0-.529-.364A1.773,1.773,0,0,0,2996.4,2006.975Z" transform="translate(-2979.737 -2003.183)" fill="#0b5999"/>
            <path id="Trazado_631161" data-name="Trazado 631161" d="M3014.89,2007.686a.689.689,0,0,1-.5-.209.695.695,0,0,1,0-1,.708.708,0,0,1,1,0,.693.693,0,0,1,0,1A.687.687,0,0,1,3014.89,2007.686Zm-.713,3.084a.678.678,0,0,1,.21-.5.709.709,0,0,1,1,0,.693.693,0,0,1,0,1,.709.709,0,0,1-1,0A.678.678,0,0,1,3014.177,2010.769Z" transform="translate(-2993.52 -2003.316)" fill="#0b5999"/>
            <path id="Trazado_631162" data-name="Trazado 631162" d="M3021.735,2005.851l-.756-.278,3.457-8.246.745.278Z" transform="translate(-2998.107 -1997.284)" fill="#0b5999"/>
            <path id="Trazado_631163" data-name="Trazado 631163" d="M3034.641,2005.851l-.756-.278,3.457-8.246.746.278Z" transform="translate(-3006.811 -1997.284)" fill="#0b5999"/>
          </g>
        </g>
        <g id="Grupo_907100" data-name="Grupo 907100" transform="translate(2832.736 2022.234)">
          <path id="Trazado_631164" data-name="Trazado 631164" d="M2881.19,2104.4v-.821l4.742-2.567v1.255l-3.167,1.723,3.167,1.722v1.255Z" transform="translate(-2881.19 -2101.013)" fill="#12263f"/>
          <path id="Trazado_631165" data-name="Trazado 631165" d="M3164.971,2308.48v-1.255l3.168-1.722-3.168-1.723v-1.255l4.742,2.567v.822Z" transform="translate(-3072.567 -2236.91)" fill="#12263f"/>
          <rect id="Rectngulo_303849" data-name="Rectngulo 303849" width="18.86" height="1.938" transform="translate(6.501 2.009)" fill="#12263f"/>
          <rect id="Rectngulo_303850" data-name="Rectngulo 303850" width="18.86" height="1.938" transform="translate(0 9.496)" fill="#12263f"/>
          <rect id="Rectngulo_303851" data-name="Rectngulo 303851" width="18.86" height="1.938" transform="translate(4.017 14.712)" fill="#12263f"/>
          <rect id="Rectngulo_303852" data-name="Rectngulo 303852" width="18.86" height="1.938" transform="translate(4.017 29.068)" fill="#12263f"/>
          <rect id="Rectngulo_303853" data-name="Rectngulo 303853" width="18.86" height="1.938" transform="translate(4.017 33.509)" fill="#12263f"/>
          <rect id="Rectngulo_303854" data-name="Rectngulo 303854" width="56.877" height="1.938" transform="translate(10.498 19.68)" fill="#12263f"/>
          <rect id="Rectngulo_303855" data-name="Rectngulo 303855" width="75.983" height="1.938" transform="translate(10.498 38.228)" fill="#12263f"/>
          <rect id="Rectngulo_303856" data-name="Rectngulo 303856" width="75.983" height="1.938" transform="translate(10.498 53.082)" fill="#12263f"/>
          <rect id="Rectngulo_303857" data-name="Rectngulo 303857" width="72.796" height="1.938" transform="translate(17.644 67.624)" fill="#12263f"/>
          <rect id="Rectngulo_303858" data-name="Rectngulo 303858" width="16.275" height="1.938" transform="translate(10.498 58.13)" fill="#12263f"/>
          <rect id="Rectngulo_303859" data-name="Rectngulo 303859" width="16.275" height="1.938" transform="translate(10.498 62.931)" fill="#12263f"/>
          <rect id="Rectngulo_303860" data-name="Rectngulo 303860" width="75.983" height="1.938" transform="translate(10.498 42.97)" fill="#12263f"/>
          <rect id="Rectngulo_303861" data-name="Rectngulo 303861" width="41.11" height="1.938" transform="translate(10.498 47.711)" fill="#12263f"/>
          <rect id="Rectngulo_303862" data-name="Rectngulo 303862" width="17.441" height="1.938" transform="translate(10.498 24.146)" fill="#12263f"/>
        </g>
      </g>
    </g>
  </g>
</svg>
