<svg xmlns="http://www.w3.org/2000/svg" width="1328" height="576" viewBox="0 0 1328 576">
  <g id="Grupo_905602" data-name="Grupo 905602" transform="translate(-135.504 -1145)">
    <rect id="Rectángulo_303402" data-name="Rectángulo 303402" width="1328" height="576" transform="translate(135.504 1145)" fill="#fffef8"/>
    <path id="Trazado_623843" data-name="Trazado 623843" d="M0,82.036c76.555.48,138.468,62.571,138.468,139.1S76.555,359.753,0,360.233v82.036c121.946-.481,220.655-99.3,220.655-221.134S121.946.481,0,0Z" transform="translate(136 1202.376)" fill="#edfbf9" opacity="0.95"/>
    <g id="Grupo_3" data-name="Grupo 3" transform="translate(1417.78 1157.844)" opacity="0.58">
      <path id="Trazado_25" data-name="Trazado 25" d="M94.754,241.936l-7.872-7.872L75.4,245.543,63.924,234.064l-7.871,7.872,11.479,11.479L56.053,264.894l7.871,7.871L75.4,261.286l11.479,11.479,7.872-7.871L83.275,253.415Z" transform="translate(-56.053 -234.064)" fill="#c3cfd9"/>
      <path id="Trazado_26" data-name="Trazado 26" d="M94.754,296.387l-7.872-7.872L75.4,299.994,63.924,288.515l-7.871,7.872,11.479,11.479L56.053,319.345l7.871,7.871L75.4,315.737l11.479,11.479,7.872-7.871L83.275,307.866Z" transform="translate(-56.053 -216.787)" fill="#c3cfd9"/>
      <path id="Trazado_27" data-name="Trazado 27" d="M94.754,350.837l-7.872-7.872L75.4,354.444,63.924,342.965l-7.871,7.872,11.479,11.479L56.053,373.8l7.871,7.871L75.4,370.187l11.479,11.479,7.872-7.871L83.275,362.316Z" transform="translate(-56.053 -199.51)" fill="#c3cfd9"/>
    </g>
    <g id="Grupo_895789" data-name="Grupo 895789" transform="translate(1090.236 1355.756)" opacity="0.49">
      <g id="Grupo_68" data-name="Grupo 68" transform="translate(160.55 0)">
        <g id="Grupo_67" data-name="Grupo 67" transform="translate(0)">
          <rect id="Rectángulo_193" data-name="Rectángulo 193" width="6.42" height="6.42" transform="translate(195.615 200.154) rotate(-44.999)" fill="#fecb2f"/>
          <rect id="Rectángulo_194" data-name="Rectángulo 194" width="6.093" height="6.093" transform="translate(177.832 182.14) rotate(-45)" fill="#fecb2f"/>
          <rect id="Rectángulo_195" data-name="Rectángulo 195" width="5.766" height="5.766" transform="translate(160.048 164.126) rotate(-45)" fill="#fecb2f"/>
          <rect id="Rectángulo_196" data-name="Rectángulo 196" width="5.439" height="5.439" transform="matrix(0.707, -0.707, 0.707, 0.707, 142.265, 146.111)" fill="#fecb2f"/>
          <rect id="Rectángulo_197" data-name="Rectángulo 197" width="5.113" height="5.113" transform="translate(124.482 128.097) rotate(-45)" fill="#fecb2f"/>
          <rect id="Rectángulo_198" data-name="Rectángulo 198" width="4.786" height="4.786" transform="matrix(0.707, -0.707, 0.707, 0.707, 106.699, 110.083)" fill="#fecb2f"/>
          <rect id="Rectángulo_199" data-name="Rectángulo 199" width="4.459" height="4.459" transform="translate(88.916 92.069) rotate(-45)" fill="#fecb2f"/>
          <rect id="Rectángulo_200" data-name="Rectángulo 200" width="4.132" height="4.132" transform="translate(71.133 74.054) rotate(-45.001)" fill="#fecb2f"/>
          <rect id="Rectángulo_201" data-name="Rectángulo 201" width="3.805" height="3.805" transform="translate(53.349 56.04) rotate(-45)" fill="#fecb2f"/>
          <rect id="Rectángulo_202" data-name="Rectángulo 202" width="3.478" height="3.478" transform="matrix(0.707, -0.707, 0.707, 0.707, 35.566, 38.026)" fill="#fecb2f"/>
          <rect id="Rectángulo_203" data-name="Rectángulo 203" width="3.151" height="3.151" transform="translate(17.783 20.011) rotate(-45)" fill="#fecb2f"/>
          <rect id="Rectángulo_204" data-name="Rectángulo 204" width="2.824" height="2.824" transform="matrix(0.707, -0.707, 0.707, 0.707, 0, 1.997)" fill="#fecb2f"/>
        </g>
      </g>
      <g id="Grupo_70" data-name="Grupo 70" transform="translate(145.954 14.595)">
        <g id="Grupo_69" data-name="Grupo 69" transform="translate(0 0)">
          <rect id="Rectángulo_205" data-name="Rectángulo 205" width="6.42" height="6.42" transform="translate(195.615 200.154) rotate(-44.999)" fill="#fecb2f"/>
          <rect id="Rectángulo_206" data-name="Rectángulo 206" width="6.093" height="6.093" transform="translate(177.832 182.14) rotate(-45)" fill="#fecb2f"/>
          <rect id="Rectángulo_207" data-name="Rectángulo 207" width="5.766" height="5.766" transform="translate(160.048 164.126) rotate(-44.999)" fill="#fecb2f"/>
          <rect id="Rectángulo_208" data-name="Rectángulo 208" width="5.439" height="5.439" transform="translate(142.265 146.111) rotate(-45)" fill="#fecb2f"/>
          <rect id="Rectángulo_209" data-name="Rectángulo 209" width="5.113" height="5.113" transform="translate(124.482 128.097) rotate(-45)" fill="#fecb2f"/>
          <rect id="Rectángulo_210" data-name="Rectángulo 210" width="4.786" height="4.786" transform="translate(106.699 110.083) rotate(-45)" fill="#fecb2f"/>
          <rect id="Rectángulo_211" data-name="Rectángulo 211" width="4.459" height="4.459" transform="translate(88.916 92.069) rotate(-45)" fill="#fecb2f"/>
          <rect id="Rectángulo_212" data-name="Rectángulo 212" width="4.132" height="4.132" transform="translate(71.133 74.054) rotate(-45)" fill="#fecb2f"/>
          <rect id="Rectángulo_213" data-name="Rectángulo 213" width="3.805" height="3.805" transform="translate(53.35 56.04) rotate(-45)" fill="#fecb2f"/>
          <rect id="Rectángulo_214" data-name="Rectángulo 214" width="3.478" height="3.478" transform="translate(35.566 38.026) rotate(-45)" fill="#fecb2f"/>
          <rect id="Rectángulo_215" data-name="Rectángulo 215" width="3.151" height="3.151" transform="translate(17.783 20.011) rotate(-45)" fill="#fecb2f"/>
          <rect id="Rectángulo_216" data-name="Rectángulo 216" width="2.824" height="2.824" transform="matrix(0.707, -0.707, 0.707, 0.707, 0, 1.997)" fill="#fecb2f"/>
        </g>
      </g>
      <g id="Grupo_72" data-name="Grupo 72" transform="translate(131.359 29.191)">
        <g id="Grupo_71" data-name="Grupo 71" transform="translate(0 0)">
          <rect id="Rectángulo_217" data-name="Rectángulo 217" width="6.42" height="6.42" transform="translate(195.615 200.154) rotate(-44.999)" fill="#fecb2f"/>
          <rect id="Rectángulo_218" data-name="Rectángulo 218" width="6.093" height="6.093" transform="translate(177.832 182.14) rotate(-44.999)" fill="#fecb2f"/>
          <rect id="Rectángulo_219" data-name="Rectángulo 219" width="5.766" height="5.766" transform="translate(160.049 164.126) rotate(-44.999)" fill="#fecb2f"/>
          <rect id="Rectángulo_220" data-name="Rectángulo 220" width="5.44" height="5.44" transform="matrix(0.707, -0.707, 0.707, 0.707, 142.265, 146.111)" fill="#fecb2f"/>
          <rect id="Rectángulo_221" data-name="Rectángulo 221" width="5.113" height="5.113" transform="translate(124.482 128.097) rotate(-44.999)" fill="#fecb2f"/>
          <rect id="Rectángulo_222" data-name="Rectángulo 222" width="4.786" height="4.786" transform="matrix(0.707, -0.707, 0.707, 0.707, 106.699, 110.083)" fill="#fecb2f"/>
          <rect id="Rectángulo_223" data-name="Rectángulo 223" width="4.459" height="4.459" transform="matrix(0.707, -0.707, 0.707, 0.707, 88.916, 92.069)" fill="#fecb2f"/>
          <rect id="Rectángulo_224" data-name="Rectángulo 224" width="4.132" height="4.132" transform="translate(71.133 74.054) rotate(-44.999)" fill="#fecb2f"/>
          <rect id="Rectángulo_225" data-name="Rectángulo 225" width="3.805" height="3.805" transform="translate(53.349 56.04) rotate(-45)" fill="#fecb2f"/>
          <rect id="Rectángulo_226" data-name="Rectángulo 226" width="3.478" height="3.478" transform="translate(35.566 38.026) rotate(-44.998)" fill="#fecb2f"/>
          <rect id="Rectángulo_227" data-name="Rectángulo 227" width="3.151" height="3.151" transform="translate(17.783 20.011) rotate(-45)" fill="#fecb2f"/>
          <rect id="Rectángulo_228" data-name="Rectángulo 228" width="2.824" height="2.824" transform="matrix(0.707, -0.707, 0.707, 0.707, 0, 1.997)" fill="#fecb2f"/>
        </g>
      </g>
      <g id="Grupo_74" data-name="Grupo 74" transform="translate(116.764 43.786)">
        <g id="Grupo_73" data-name="Grupo 73" transform="translate(0 0)">
          <rect id="Rectángulo_229" data-name="Rectángulo 229" width="6.42" height="6.42" transform="translate(195.615 200.154) rotate(-45.001)" fill="#fecb2f"/>
          <rect id="Rectángulo_230" data-name="Rectángulo 230" width="6.093" height="6.093" transform="translate(177.831 182.14) rotate(-45.001)" fill="#fecb2f"/>
          <rect id="Rectángulo_231" data-name="Rectángulo 231" width="5.766" height="5.766" transform="translate(160.048 164.126) rotate(-45)" fill="#fecb2f"/>
          <rect id="Rectángulo_232" data-name="Rectángulo 232" width="5.44" height="5.44" transform="matrix(0.707, -0.707, 0.707, 0.707, 142.265, 146.112)" fill="#fecb2f"/>
          <rect id="Rectángulo_233" data-name="Rectángulo 233" width="5.113" height="5.113" transform="translate(124.482 128.097) rotate(-45)" fill="#fecb2f"/>
          <rect id="Rectángulo_234" data-name="Rectángulo 234" width="4.786" height="4.786" transform="matrix(0.707, -0.707, 0.707, 0.707, 106.699, 110.083)" fill="#fecb2f"/>
          <rect id="Rectángulo_235" data-name="Rectángulo 235" width="4.459" height="4.459" transform="translate(88.916 92.069) rotate(-45)" fill="#fecb2f"/>
          <rect id="Rectángulo_236" data-name="Rectángulo 236" width="4.132" height="4.132" transform="translate(71.133 74.054) rotate(-45.001)" fill="#fecb2f"/>
          <rect id="Rectángulo_237" data-name="Rectángulo 237" width="3.805" height="3.805" transform="translate(53.349 56.04) rotate(-45)" fill="#fecb2f"/>
          <rect id="Rectángulo_238" data-name="Rectángulo 238" width="3.478" height="3.478" transform="translate(35.566 38.026) rotate(-45)" fill="#fecb2f"/>
          <rect id="Rectángulo_239" data-name="Rectángulo 239" width="3.151" height="3.151" transform="translate(17.783 20.011) rotate(-45)" fill="#fecb2f"/>
          <rect id="Rectángulo_240" data-name="Rectángulo 240" width="2.824" height="2.824" transform="translate(0 1.997) rotate(-44.998)" fill="#fecb2f"/>
        </g>
      </g>
      <g id="Grupo_76" data-name="Grupo 76" transform="translate(102.168 58.382)">
        <g id="Grupo_75" data-name="Grupo 75" transform="translate(0 0)">
          <rect id="Rectángulo_241" data-name="Rectángulo 241" width="6.42" height="6.42" transform="translate(195.615 200.154) rotate(-45.001)" fill="#fecb2f"/>
          <rect id="Rectángulo_242" data-name="Rectángulo 242" width="6.093" height="6.093" transform="translate(177.831 182.14) rotate(-45.001)" fill="#fecb2f"/>
          <rect id="Rectángulo_243" data-name="Rectángulo 243" width="5.766" height="5.766" transform="translate(160.048 164.126) rotate(-45)" fill="#fecb2f"/>
          <rect id="Rectángulo_244" data-name="Rectángulo 244" width="5.439" height="5.439" transform="matrix(0.707, -0.707, 0.707, 0.707, 142.265, 146.111)" fill="#fecb2f"/>
          <rect id="Rectángulo_245" data-name="Rectángulo 245" width="5.113" height="5.113" transform="translate(124.482 128.097) rotate(-45)" fill="#fecb2f"/>
          <rect id="Rectángulo_246" data-name="Rectángulo 246" width="4.786" height="4.786" transform="translate(106.699 110.083) rotate(-45.001)" fill="#fecb2f"/>
          <rect id="Rectángulo_247" data-name="Rectángulo 247" width="4.459" height="4.459" transform="translate(88.916 92.069) rotate(-45)" fill="#fecb2f"/>
          <rect id="Rectángulo_248" data-name="Rectángulo 248" width="4.132" height="4.132" transform="translate(71.133 74.054) rotate(-45.001)" fill="#fecb2f"/>
          <rect id="Rectángulo_249" data-name="Rectángulo 249" width="3.805" height="3.805" transform="translate(53.349 56.04) rotate(-45)" fill="#fecb2f"/>
          <rect id="Rectángulo_250" data-name="Rectángulo 250" width="3.478" height="3.478" transform="matrix(0.707, -0.707, 0.707, 0.707, 35.566, 38.026)" fill="#fecb2f"/>
          <rect id="Rectángulo_251" data-name="Rectángulo 251" width="3.151" height="3.151" transform="translate(17.783 20.011) rotate(-45)" fill="#fecb2f"/>
          <rect id="Rectángulo_252" data-name="Rectángulo 252" width="2.824" height="2.824" transform="matrix(0.707, -0.707, 0.707, 0.707, 0, 1.997)" fill="#fecb2f"/>
        </g>
      </g>
      <g id="Grupo_78" data-name="Grupo 78" transform="translate(87.573 72.977)">
        <g id="Grupo_77" data-name="Grupo 77" transform="translate(0 0)">
          <rect id="Rectángulo_253" data-name="Rectángulo 253" width="6.42" height="6.42" transform="translate(195.615 200.154) rotate(-45)" fill="#fecb2f"/>
          <rect id="Rectángulo_254" data-name="Rectángulo 254" width="6.093" height="6.093" transform="translate(177.832 182.14) rotate(-45)" fill="#fecb2f"/>
          <rect id="Rectángulo_255" data-name="Rectángulo 255" width="5.766" height="5.766" transform="translate(160.048 164.126) rotate(-45.001)" fill="#fecb2f"/>
          <rect id="Rectángulo_256" data-name="Rectángulo 256" width="5.439" height="5.439" transform="matrix(0.707, -0.707, 0.707, 0.707, 142.265, 146.111)" fill="#fecb2f"/>
          <rect id="Rectángulo_257" data-name="Rectángulo 257" width="5.113" height="5.113" transform="matrix(0.707, -0.707, 0.707, 0.707, 124.482, 128.097)" fill="#fecb2f"/>
          <rect id="Rectángulo_258" data-name="Rectángulo 258" width="4.786" height="4.786" transform="matrix(0.707, -0.707, 0.707, 0.707, 106.699, 110.083)" fill="#fecb2f"/>
          <rect id="Rectángulo_259" data-name="Rectángulo 259" width="4.459" height="4.459" transform="translate(88.916 92.069) rotate(-45)" fill="#fecb2f"/>
          <rect id="Rectángulo_260" data-name="Rectángulo 260" width="4.132" height="4.132" transform="translate(71.133 74.054) rotate(-45.001)" fill="#fecb2f"/>
          <rect id="Rectángulo_261" data-name="Rectángulo 261" width="3.805" height="3.805" transform="translate(53.349 56.04) rotate(-45)" fill="#fecb2f"/>
          <rect id="Rectángulo_262" data-name="Rectángulo 262" width="3.478" height="3.478" transform="matrix(0.707, -0.707, 0.707, 0.707, 35.566, 38.026)" fill="#fecb2f"/>
          <rect id="Rectángulo_263" data-name="Rectángulo 263" width="3.151" height="3.151" transform="translate(17.783 20.011) rotate(-45)" fill="#fecb2f"/>
          <rect id="Rectángulo_264" data-name="Rectángulo 264" width="2.824" height="2.824" transform="matrix(0.707, -0.707, 0.707, 0.707, 0, 1.997)" fill="#fecb2f"/>
        </g>
      </g>
      <g id="Grupo_80" data-name="Grupo 80" transform="translate(72.977 87.573)">
        <g id="Grupo_79" data-name="Grupo 79" transform="translate(0 0)">
          <rect id="Rectángulo_265" data-name="Rectángulo 265" width="6.42" height="6.42" transform="translate(195.615 200.154) rotate(-44.999)" fill="#fecb2f"/>
          <rect id="Rectángulo_266" data-name="Rectángulo 266" width="6.093" height="6.093" transform="translate(177.831 182.14) rotate(-45)" fill="#fecb2f"/>
          <rect id="Rectángulo_267" data-name="Rectángulo 267" width="5.766" height="5.766" transform="translate(160.048 164.126) rotate(-44.999)" fill="#fecb2f"/>
          <rect id="Rectángulo_268" data-name="Rectángulo 268" width="5.439" height="5.439" transform="translate(142.265 146.111) rotate(-45)" fill="#fecb2f"/>
          <rect id="Rectángulo_269" data-name="Rectángulo 269" width="5.113" height="5.113" transform="translate(124.482 128.097) rotate(-44.999)" fill="#fecb2f"/>
          <rect id="Rectángulo_270" data-name="Rectángulo 270" width="4.786" height="4.786" transform="matrix(0.707, -0.707, 0.707, 0.707, 106.699, 110.083)" fill="#fecb2f"/>
          <rect id="Rectángulo_271" data-name="Rectángulo 271" width="4.459" height="4.459" transform="matrix(0.707, -0.707, 0.707, 0.707, 88.916, 92.069)" fill="#fecb2f"/>
          <rect id="Rectángulo_272" data-name="Rectángulo 272" width="4.132" height="4.132" transform="translate(71.133 74.054) rotate(-45.001)" fill="#fecb2f"/>
          <rect id="Rectángulo_273" data-name="Rectángulo 273" width="3.805" height="3.805" transform="translate(53.349 56.04) rotate(-45)" fill="#fecb2f"/>
          <rect id="Rectángulo_274" data-name="Rectángulo 274" width="3.478" height="3.478" transform="translate(35.566 38.026) rotate(-45.002)" fill="#fecb2f"/>
          <rect id="Rectángulo_275" data-name="Rectángulo 275" width="3.151" height="3.151" transform="translate(17.783 20.011) rotate(-45)" fill="#fecb2f"/>
          <rect id="Rectángulo_276" data-name="Rectángulo 276" width="2.824" height="2.824" transform="matrix(0.707, -0.707, 0.707, 0.707, 0, 1.997)" fill="#fecb2f"/>
        </g>
      </g>
      <g id="Grupo_82" data-name="Grupo 82" transform="translate(58.382 102.168)">
        <g id="Grupo_81" data-name="Grupo 81" transform="translate(0 0)">
          <rect id="Rectángulo_277" data-name="Rectángulo 277" width="6.42" height="6.42" transform="translate(195.615 200.154) rotate(-44.999)" fill="#fecb2f"/>
          <rect id="Rectángulo_278" data-name="Rectángulo 278" width="6.093" height="6.093" transform="translate(177.832 182.14) rotate(-45)" fill="#fecb2f"/>
          <rect id="Rectángulo_279" data-name="Rectángulo 279" width="5.766" height="5.766" transform="translate(160.048 164.126) rotate(-44.999)" fill="#fecb2f"/>
          <rect id="Rectángulo_280" data-name="Rectángulo 280" width="5.439" height="5.439" transform="translate(142.265 146.111) rotate(-45)" fill="#fecb2f"/>
          <rect id="Rectángulo_281" data-name="Rectángulo 281" width="5.113" height="5.113" transform="translate(124.482 128.097) rotate(-44.999)" fill="#fecb2f"/>
          <rect id="Rectángulo_282" data-name="Rectángulo 282" width="4.786" height="4.786" transform="translate(106.699 110.083) rotate(-45)" fill="#fecb2f"/>
          <rect id="Rectángulo_283" data-name="Rectángulo 283" width="4.459" height="4.459" transform="matrix(0.707, -0.707, 0.707, 0.707, 88.916, 92.069)" fill="#fecb2f"/>
          <rect id="Rectángulo_284" data-name="Rectángulo 284" width="4.132" height="4.132" transform="translate(71.133 74.054) rotate(-45)" fill="#fecb2f"/>
          <rect id="Rectángulo_285" data-name="Rectángulo 285" width="3.805" height="3.805" transform="translate(53.349 56.04) rotate(-45)" fill="#fecb2f"/>
          <rect id="Rectángulo_286" data-name="Rectángulo 286" width="3.478" height="3.478" transform="translate(35.566 38.026) rotate(-45)" fill="#fecb2f"/>
          <rect id="Rectángulo_287" data-name="Rectángulo 287" width="3.151" height="3.151" transform="translate(17.783 20.011) rotate(-45)" fill="#fecb2f"/>
          <rect id="Rectángulo_288" data-name="Rectángulo 288" width="2.824" height="2.824" transform="matrix(0.707, -0.707, 0.707, 0.707, 0, 1.997)" fill="#fecb2f"/>
        </g>
      </g>
      <g id="Grupo_84" data-name="Grupo 84" transform="translate(43.786 116.764)">
        <g id="Grupo_83" data-name="Grupo 83" transform="translate(0 0)">
          <rect id="Rectángulo_289" data-name="Rectángulo 289" width="6.42" height="6.42" transform="translate(195.615 200.154) rotate(-44.999)" fill="#fecb2f"/>
          <rect id="Rectángulo_290" data-name="Rectángulo 290" width="6.093" height="6.093" transform="translate(177.832 182.14) rotate(-44.999)" fill="#fecb2f"/>
          <rect id="Rectángulo_291" data-name="Rectángulo 291" width="5.766" height="5.766" transform="translate(160.048 164.126) rotate(-44.999)" fill="#fecb2f"/>
          <rect id="Rectángulo_292" data-name="Rectángulo 292" width="5.44" height="5.44" transform="matrix(0.707, -0.707, 0.707, 0.707, 142.265, 146.111)" fill="#fecb2f"/>
          <rect id="Rectángulo_293" data-name="Rectángulo 293" width="5.113" height="5.113" transform="translate(124.482 128.097) rotate(-44.999)" fill="#fecb2f"/>
          <rect id="Rectángulo_294" data-name="Rectángulo 294" width="4.786" height="4.786" transform="matrix(0.707, -0.707, 0.707, 0.707, 106.699, 110.083)" fill="#fecb2f"/>
          <rect id="Rectángulo_295" data-name="Rectángulo 295" width="4.459" height="4.459" transform="matrix(0.707, -0.707, 0.707, 0.707, 88.916, 92.068)" fill="#fecb2f"/>
          <rect id="Rectángulo_296" data-name="Rectángulo 296" width="4.132" height="4.132" transform="translate(71.133 74.054) rotate(-44.999)" fill="#fecb2f"/>
          <rect id="Rectángulo_297" data-name="Rectángulo 297" width="3.805" height="3.805" transform="matrix(0.707, -0.707, 0.707, 0.707, 53.35, 56.04)" fill="#fecb2f"/>
          <rect id="Rectángulo_298" data-name="Rectángulo 298" width="3.478" height="3.478" transform="translate(35.566 38.026) rotate(-44.998)" fill="#fecb2f"/>
          <rect id="Rectángulo_299" data-name="Rectángulo 299" width="3.151" height="3.151" transform="translate(17.783 20.011) rotate(-44.998)" fill="#fecb2f"/>
          <rect id="Rectángulo_300" data-name="Rectángulo 300" width="2.824" height="2.824" transform="translate(0 1.997) rotate(-44.998)" fill="#fecb2f"/>
        </g>
      </g>
      <g id="Grupo_86" data-name="Grupo 86" transform="translate(29.191 131.359)">
        <g id="Grupo_85" data-name="Grupo 85" transform="translate(0 0)">
          <rect id="Rectángulo_301" data-name="Rectángulo 301" width="6.42" height="6.42" transform="matrix(0.707, -0.707, 0.707, 0.707, 195.615, 200.155)" fill="#fecb2f"/>
          <rect id="Rectángulo_302" data-name="Rectángulo 302" width="6.093" height="6.093" transform="translate(177.831 182.14) rotate(-45.001)" fill="#fecb2f"/>
          <rect id="Rectángulo_303" data-name="Rectángulo 303" width="5.766" height="5.766" transform="translate(160.048 164.126) rotate(-45.001)" fill="#fecb2f"/>
          <rect id="Rectángulo_304" data-name="Rectángulo 304" width="5.44" height="5.44" transform="matrix(0.707, -0.707, 0.707, 0.707, 142.265, 146.112)" fill="#fecb2f"/>
          <rect id="Rectángulo_305" data-name="Rectángulo 305" width="5.113" height="5.113" transform="translate(124.482 128.097) rotate(-45)" fill="#fecb2f"/>
          <rect id="Rectángulo_306" data-name="Rectángulo 306" width="4.786" height="4.786" transform="translate(106.699 110.083) rotate(-45.001)" fill="#fecb2f"/>
          <rect id="Rectángulo_307" data-name="Rectángulo 307" width="4.459" height="4.459" transform="translate(88.916 92.069) rotate(-45)" fill="#fecb2f"/>
          <rect id="Rectángulo_308" data-name="Rectángulo 308" width="4.132" height="4.132" transform="translate(71.133 74.054) rotate(-45.001)" fill="#fecb2f"/>
          <rect id="Rectángulo_309" data-name="Rectángulo 309" width="3.805" height="3.805" transform="translate(53.35 56.04) rotate(-45)" fill="#fecb2f"/>
          <rect id="Rectángulo_310" data-name="Rectángulo 310" width="3.478" height="3.478" transform="translate(35.566 38.026) rotate(-45)" fill="#fecb2f"/>
          <rect id="Rectángulo_311" data-name="Rectángulo 311" width="3.151" height="3.151" transform="translate(17.783 20.011) rotate(-45)" fill="#fecb2f"/>
          <rect id="Rectángulo_312" data-name="Rectángulo 312" width="2.824" height="2.824" transform="translate(0 1.997) rotate(-45)" fill="#fecb2f"/>
        </g>
      </g>
      <g id="Grupo_88" data-name="Grupo 88" transform="translate(14.595 145.954)">
        <g id="Grupo_87" data-name="Grupo 87" transform="translate(0 0)">
          <rect id="Rectángulo_313" data-name="Rectángulo 313" width="6.42" height="6.42" transform="translate(195.615 200.154) rotate(-45)" fill="#fecb2f"/>
          <rect id="Rectángulo_314" data-name="Rectángulo 314" width="6.093" height="6.093" transform="translate(177.831 182.14) rotate(-45)" fill="#fecb2f"/>
          <rect id="Rectángulo_315" data-name="Rectángulo 315" width="5.766" height="5.766" transform="translate(160.048 164.126) rotate(-45)" fill="#fecb2f"/>
          <rect id="Rectángulo_316" data-name="Rectángulo 316" width="5.439" height="5.439" transform="matrix(0.707, -0.707, 0.707, 0.707, 142.265, 146.112)" fill="#fecb2f"/>
          <rect id="Rectángulo_317" data-name="Rectángulo 317" width="5.113" height="5.113" transform="translate(124.482 128.097) rotate(-45.001)" fill="#fecb2f"/>
          <rect id="Rectángulo_318" data-name="Rectángulo 318" width="4.786" height="4.786" transform="matrix(0.707, -0.707, 0.707, 0.707, 106.699, 110.083)" fill="#fecb2f"/>
          <rect id="Rectángulo_319" data-name="Rectángulo 319" width="4.459" height="4.459" transform="translate(88.916 92.069) rotate(-45)" fill="#fecb2f"/>
          <rect id="Rectángulo_320" data-name="Rectángulo 320" width="4.132" height="4.132" transform="translate(71.133 74.054) rotate(-45.001)" fill="#fecb2f"/>
          <rect id="Rectángulo_321" data-name="Rectángulo 321" width="3.805" height="3.805" transform="translate(53.349 56.04) rotate(-45)" fill="#fecb2f"/>
          <rect id="Rectángulo_322" data-name="Rectángulo 322" width="3.478" height="3.478" transform="matrix(0.707, -0.707, 0.707, 0.707, 35.566, 38.026)" fill="#fecb2f"/>
          <rect id="Rectángulo_323" data-name="Rectángulo 323" width="3.151" height="3.151" transform="translate(17.783 20.011) rotate(-45)" fill="#fecb2f"/>
          <rect id="Rectángulo_324" data-name="Rectángulo 324" width="2.824" height="2.824" transform="matrix(0.707, -0.707, 0.707, 0.707, 0, 1.997)" fill="#fecb2f"/>
        </g>
      </g>
      <g id="Grupo_90" data-name="Grupo 90" transform="translate(0 160.55)">
        <g id="Grupo_89" data-name="Grupo 89" transform="translate(0 0)">
          <rect id="Rectángulo_325" data-name="Rectángulo 325" width="6.42" height="6.42" transform="translate(195.615 200.154) rotate(-45)" fill="#fecb2f"/>
          <rect id="Rectángulo_326" data-name="Rectángulo 326" width="6.093" height="6.093" transform="translate(177.832 182.14) rotate(-45)" fill="#fecb2f"/>
          <rect id="Rectángulo_327" data-name="Rectángulo 327" width="5.766" height="5.766" transform="translate(160.048 164.126) rotate(-45)" fill="#fecb2f"/>
          <rect id="Rectángulo_328" data-name="Rectángulo 328" width="5.439" height="5.439" transform="translate(142.265 146.111) rotate(-45)" fill="#fecb2f"/>
          <rect id="Rectángulo_329" data-name="Rectángulo 329" width="5.113" height="5.113" transform="translate(124.482 128.097) rotate(-45)" fill="#fecb2f"/>
          <rect id="Rectángulo_330" data-name="Rectángulo 330" width="4.786" height="4.786" transform="translate(106.699 110.083) rotate(-45)" fill="#fecb2f"/>
          <rect id="Rectángulo_331" data-name="Rectángulo 331" width="4.459" height="4.459" transform="matrix(0.707, -0.707, 0.707, 0.707, 88.916, 92.069)" fill="#fecb2f"/>
          <rect id="Rectángulo_332" data-name="Rectángulo 332" width="4.132" height="4.132" transform="translate(71.133 74.054) rotate(-45.001)" fill="#fecb2f"/>
          <rect id="Rectángulo_333" data-name="Rectángulo 333" width="3.805" height="3.805" transform="translate(53.349 56.04) rotate(-45.002)" fill="#fecb2f"/>
          <rect id="Rectángulo_334" data-name="Rectángulo 334" width="3.478" height="3.478" transform="translate(35.566 38.026) rotate(-45.002)" fill="#fecb2f"/>
          <rect id="Rectángulo_335" data-name="Rectángulo 335" width="3.151" height="3.151" transform="matrix(0.707, -0.707, 0.707, 0.707, 17.783, 20.011)" fill="#fecb2f"/>
          <rect id="Rectángulo_336" data-name="Rectángulo 336" width="2.824" height="2.824" transform="matrix(0.707, -0.707, 0.707, 0.707, 0, 1.997)" fill="#fecb2f"/>
        </g>
      </g>
    </g>
    <g id="Grupo_895791" data-name="Grupo 895791" transform="translate(530.5 1157.844)" opacity="0.42">
      <path id="Trazado_1" data-name="Trazado 1" d="M131.9-75.2-45.679,102.383q1.233,7.617,3.191,14.97L146.874-72.008Q139.525-73.962,131.9-75.2Z" transform="translate(47.701 77.221)" fill="none" stroke="#f6cd53" stroke-miterlimit="10" stroke-width="1.078"/>
      <path id="Trazado_2" data-name="Trazado 2" d="M146.167-72.715-43.2,116.647q1.871,7.035,4.362,13.8l198.8-198.8Q153.212-70.85,146.167-72.715Z" transform="translate(48.408 77.928)" fill="none" stroke="#f6cd53" stroke-miterlimit="10" stroke-width="1.078"/>
      <path id="Trazado_3" data-name="Trazado 3" d="M198.969-48.491l-217.94,217.94c2.762,3.281,5.643,6.458,8.666,9.5L208.466-39.825C205.427-42.847,202.25-45.729,198.969-48.491Z" transform="translate(55.301 84.821)" fill="none" stroke="#f6cd53" stroke-miterlimit="10" stroke-width="1.078"/>
      <path id="Trazado_4" data-name="Trazado 4" d="M190.466-54.647-25.128,160.947q3.75,5.291,7.909,10.253l217.94-217.94Q195.771-50.907,190.466-54.647Z" transform="translate(53.549 83.07)" fill="none" stroke="#f6cd53" stroke-miterlimit="10" stroke-width="1.078"/>
      <path id="Trazado_5" data-name="Trazado 5" d="M170.575-65.12-35.6,141.054c1.931,4.054,4.052,8,6.315,11.848L182.422-58.8C178.572-61.068,174.629-63.189,170.575-65.12Z" transform="translate(50.569 80.089)" fill="none" stroke="#f6cd53" stroke-miterlimit="10" stroke-width="1.078"/>
      <path id="Trazado_6" data-name="Trazado 6" d="M181.023-60.2-30.684,151.5q3.337,5.675,7.137,11.025L192.047-53.066Q186.7-56.86,181.023-60.2Z" transform="translate(51.968 81.488)" fill="none" stroke="#f6cd53" stroke-miterlimit="10" stroke-width="1.078"/>
      <path id="Trazado_7" data-name="Trazado 7" d="M159-69.319l-198.8,198.8q2.414,6.53,5.394,12.769L171.77-63.925Q165.532-66.894,159-69.319Z" transform="translate(49.374 78.894)" fill="none" stroke="#f6cd53" stroke-miterlimit="10" stroke-width="1.078"/>
      <path id="Trazado_8" data-name="Trazado 8" d="M-38.97,19.205,48.724-68.489A155.132,155.132,0,0,0-38.97,19.205Z" transform="translate(49.61 79.13)" fill="none" stroke="#f6cd53" stroke-miterlimit="10" stroke-width="1.078"/>
      <path id="Trazado_9" data-name="Trazado 9" d="M50.407-66.805-37.287,20.889a153.347,153.347,0,0,0-7.6,25.761L76.17-74.405A153.408,153.408,0,0,0,50.407-66.805Z" transform="translate(47.927 77.447)" fill="none" stroke="#f6cd53" stroke-miterlimit="10" stroke-width="1.078"/>
      <path id="Trazado_10" data-name="Trazado 10" d="M115.913-76.583-47.064,86.392a155.1,155.1,0,0,0,1.779,16.385L132.3-74.805A155.133,155.133,0,0,0,115.913-76.583Z" transform="translate(47.307 76.827)" fill="none" stroke="#f6cd53" stroke-miterlimit="10" stroke-width="1.078"/>
      <path id="Trazado_11" data-name="Trazado 11" d="M107.452-76.773c-3.274,0-6.517.136-9.742.337L-46.916,68.191c-.2,3.224-.337,6.467-.337,9.742,0,2.857.09,5.693.243,8.513L115.967-76.529C113.147-76.682,110.311-76.773,107.452-76.773Z" transform="translate(47.253 76.773)" fill="none" stroke="#f6cd53" stroke-miterlimit="10" stroke-width="1.078"/>
      <path id="Trazado_12" data-name="Trazado 12" d="M76.769-73.806-44.286,47.249a154.773,154.773,0,0,0-2.705,20.868L97.636-76.511A154.985,154.985,0,0,0,76.769-73.806Z" transform="translate(47.328 76.848)" fill="none" stroke="#f6cd53" stroke-miterlimit="10" stroke-width="1.078"/>
      <path id="Trazado_13" data-name="Trazado 13" d="M231.428,23.422,52.941,201.907a154.855,154.855,0,0,0,16.279,1.883L233.311,39.7A154.768,154.768,0,0,0,231.428,23.422Z" transform="translate(75.766 105.286)" fill="none" stroke="#f6cd53" stroke-miterlimit="10" stroke-width="1.078"/>
      <path id="Trazado_14" data-name="Trazado 14" d="M230.04,45.814c0-3.268-.136-6.5-.335-9.719L65.614,200.184c3.218.2,6.452.335,9.719.335,2.8,0,5.576-.084,8.338-.23L229.81,54.152C229.956,51.39,230.04,48.612,230.04,45.814Z" transform="translate(79.372 108.893)" fill="none" stroke="#f6cd53" stroke-miterlimit="10" stroke-width="1.078"/>
      <path id="Trazado_15" data-name="Trazado 15" d="M225.81,50.152,79.671,196.289a154.78,154.78,0,0,0,20.692-2.529L223.28,70.844A155.028,155.028,0,0,0,225.81,50.152Z" transform="translate(83.373 112.893)" fill="none" stroke="#f6cd53" stroke-miterlimit="10" stroke-width="1.078"/>
      <path id="Trazado_16" data-name="Trazado 16" d="M218.7,66.26,95.779,189.176a153.464,153.464,0,0,0,25.2-7.037l90.681-90.68A153.75,153.75,0,0,0,218.7,66.26Z" transform="translate(87.957 117.477)" fill="none" stroke="#f6cd53" stroke-miterlimit="10" stroke-width="1.078"/>
      <path id="Trazado_17" data-name="Trazado 17" d="M206.077,85.877,115.4,176.557A155.143,155.143,0,0,0,206.077,85.877Z" transform="translate(93.539 123.059)" fill="none" stroke="#f6cd53" stroke-miterlimit="10" stroke-width="1.078"/>
      <path id="Trazado_18" data-name="Trazado 18" d="M231.442,11.837,41.357,201.923q7.3,2,14.881,3.281L234.724,26.719Q233.443,19.146,231.442,11.837Z" transform="translate(72.469 101.989)" fill="none" stroke="#f6cd53" stroke-miterlimit="10" stroke-width="1.078"/>
      <path id="Trazado_19" data-name="Trazado 19" d="M218.879-26.455,3.065,189.359c3.548,2.546,7.2,4.958,10.96,7.2L226.082-15.495C223.838-19.259,221.425-22.907,218.879-26.455Z" transform="translate(61.572 91.092)" fill="none" stroke="#f6cd53" stroke-miterlimit="10" stroke-width="1.078"/>
      <path id="Trazado_20" data-name="Trazado 20" d="M213.165-34.388-4.869,183.646q4.923,4.193,10.192,7.971L221.137-24.2Q217.358-29.462,213.165-34.388Z" transform="translate(59.315 88.835)" fill="none" stroke="#f6cd53" stroke-miterlimit="10" stroke-width="1.078"/>
      <path id="Trazado_21" data-name="Trazado 21" d="M230.04,1.157,30.676,200.519q6.717,2.536,13.721,4.443L234.482,14.876Q232.57,7.88,230.04,1.157Z" transform="translate(69.43 98.95)" fill="none" stroke="#f6cd53" stroke-miterlimit="10" stroke-width="1.078"/>
      <path id="Trazado_22" data-name="Trazado 22" d="M206.546-41.745-12.225,177.026c3.02,3.039,6.187,5.932,9.449,8.713L215.258-32.294C212.477-35.558,209.585-38.724,206.546-41.745Z" transform="translate(57.221 86.741)" fill="none" stroke="#f6cd53" stroke-miterlimit="10" stroke-width="1.078"/>
      <path id="Trazado_23" data-name="Trazado 23" d="M227.416-8.746,20.773,197.9c4.138,2,8.388,3.806,12.721,5.441L232.858,3.975C231.223-.359,229.419-4.61,227.416-8.746Z" transform="translate(66.612 96.132)" fill="none" stroke="#f6cd53" stroke-miterlimit="10" stroke-width="1.078"/>
      <path id="Trazado_24" data-name="Trazado 24" d="M223.654-17.923,11.6,194.134c3.828,2.284,7.754,4.422,11.787,6.374L230.028-6.134C228.075-10.169,225.936-14.094,223.654-17.923Z" transform="translate(64 93.52)" fill="none" stroke="#f6cd53" stroke-miterlimit="10" stroke-width="1.078"/>
    </g>
    <g id="Grupo_905601" data-name="Grupo 905601" transform="translate(-14)">
      <g id="Grupo_905600" data-name="Grupo 905600" transform="translate(514.032 1333)">
        <path id="Trazado_623844" data-name="Trazado 623844" d="M172.136,331.251-96.693,608.895a22.962,22.962,0,0,1-33.217,0h0a24.824,24.824,0,0,1,0-34.306L138.919,296.945a22.965,22.965,0,0,1,33.217,0h0A24.824,24.824,0,0,1,172.136,331.251Z" transform="translate(136.79 -289.84)" fill="none" stroke="#0b5999" stroke-miterlimit="10" stroke-width="2" opacity="0.09"/>
        <path id="Trazado_623845" data-name="Trazado 623845" d="M143.786,419.771-61.408,631.693a17.528,17.528,0,0,1-25.354,0h0a18.947,18.947,0,0,1,0-26.187L118.431,393.585a17.53,17.53,0,0,1,25.355,0h0A18.95,18.95,0,0,1,143.786,419.771Z" transform="translate(148.774 -304.801)" fill="none" stroke="#0b5999" stroke-miterlimit="10" stroke-width="2" opacity="0.09"/>
      </g>
    </g>
  </g>
</svg>
